<?xml version="1.0" encoding="utf-8"?>
<!-- Generator: Adobe Illustrator 24.3.0, SVG Export Plug-In . SVG Version: 6.00 Build 0)  -->
<svg version="1.1" id="Layer_1" xmlns="http://www.w3.org/2000/svg" xmlns:xlink="http://www.w3.org/1999/xlink" x="0px" y="0px"
	 viewBox="0 0 209.9 165.7" style="enable-background:new 0 0 209.9 165.7;" xml:space="preserve">
<style type="text/css">
	.st0{fill:#FFFFFF;}
</style>
<g>
	<g>
		<path class="st0" d="M142.8,144c1.2,0.2,2.5-0.1,3.5-0.9c1-0.7,1.7-1.8,1.9-3.1l1.1-7.4c0.2-1.5,1.2-2.8,2.5-3.4l6.7-3.3
			c1.1-0.6,2-1.6,2.4-2.7c0.4-1.2,0.3-2.5-0.3-3.6l-3.5-6.7c-0.7-1.3-0.7-2.9,0-4.2l3.5-6.7c0.6-1.1,0.7-2.4,0.3-3.6
			s-1.2-2.2-2.4-2.7l-6.7-3.3c-1.3-0.7-2.3-1.9-2.5-3.4l-1.1-7.4c-0.2-1.2-0.9-2.4-1.9-3.1c-1-0.8-2.3-1.1-3.5-0.9l-7.4,1.2
			c-1.5,0.2-3-0.2-4-1.3l-5.3-5.4c-0.9-0.9-2.1-1.4-3.3-1.4c-1.2,0-2.5,0.5-3.3,1.4l-5.3,5.4c-1,1.1-2.5,1.5-4,1.3l-7.4-1.2
			c-1.2-0.2-2.5,0.1-3.5,0.9c-1,0.7-1.7,1.8-1.9,3.1L96.3,89c-0.2,1.5-1.2,2.8-2.5,3.4L87,95.6c-1.1,0.6-2,1.5-2.4,2.7
			s-0.3,2.5,0.3,3.6l3.5,6.7c0.7,1.3,0.7,2.9,0,4.2l-3.5,6.7c-0.6,1.1-0.7,2.4-0.3,3.6c0.4,1.2,1.2,2.2,2.4,2.7l6.7,3.3
			c1.3,0.7,2.3,1.9,2.5,3.4l1.1,7.4c0.2,1.2,0.9,2.4,1.9,3.1c1,0.7,2.3,1,3.5,0.9l7.4-1.2c1.5-0.3,3,0.2,4,1.3l5.3,5.3
			c0.9,0.9,2.1,1.4,3.3,1.4c1.3,0,2.5-0.5,3.3-1.4l5.3-5.3c1.1-1.1,2.6-1.6,4-1.3L142.8,144z M122.7,138.6
			c-15.8,0-28.6-12.8-28.6-28.5s12.8-28.6,28.6-28.6s28.6,12.8,28.6,28.6S138.5,138.6,122.7,138.6z"/>
		<path class="st0" d="M122.8,85.6c-13.5,0-24.4,10.9-24.4,24.4s11,24.4,24.4,24.4c13.5,0,24.4-10.9,24.4-24.4
			S136.2,85.6,122.8,85.6z"/>
		<path class="st0" d="M165.3,149.4L152,136.1l-0.7,4.5c-0.3,2.1-1.5,4-3.2,5.2s-3.8,1.7-5.9,1.4l-7.4-1.2c-0.6,0-1,0.1-1.3,0.4
			l-1.3,1.3l17.3,17.3c0.7,0.7,1.6,0.9,2.5,0.6c0.9-0.3,1.6-1,1.7-2l1.6-8.4l8.4-1.6c0.9-0.2,1.7-0.8,1.9-1.7
			C166.2,151,165.9,150,165.3,149.4z"/>
		<path class="st0" d="M110.9,145.9l-7.6,1.2c-2.1,0.3-4.2-0.2-5.9-1.4c-1.7-1.2-2.8-3.1-3.1-5.2l-0.7-4.5l-13.3,13.3
			c-0.7,0.7-0.9,1.6-0.6,2.5s1,1.6,1.9,1.7l8.4,1.6l1.6,8.4c0.2,0.9,0.8,1.7,1.7,2c0.9,0.3,1.9,0,2.5-0.6l17.3-17.3l-1.3-1.3
			C111.6,146,111.2,145.9,110.9,145.9z"/>
		<path class="st0" d="M130.3,27.8H68.1c-2.2,0-4.1,1.8-4.1,4.1s1.8,4.1,4.1,4.1h62.2c2.2,0,4.1-1.8,4.1-4S132.5,27.8,130.3,27.8z"
			/>
		<path class="st0" d="M130.3,48.6H68.1c-2.2,0-4.1,1.8-4.1,4s1.8,4.1,4.1,4.1h62.2c2.2,0,4.1-1.8,4.1-4.1
			C134.4,50.4,132.5,48.6,130.3,48.6z"/>
		<path class="st0" d="M87.2,133.2l-3.1-1.5c-0.8-0.4-1.5-0.9-2.2-1.5H55.8c-1.8,0-3.2-1.5-3.2-3.2V11.9c0-1.8,1.5-3.3,3.2-3.3h87.1
			c1.8,0,3.2,1.5,3.2,3.3v59.4c1.4,0.3,2.8,1,4,1.9c2.4,1.7,4,4.4,4.5,7.4l0.1-68.6c0-6.6-5.3-11.9-11.9-11.9h-87
			c-6.6,0-11.9,5.3-11.9,11.9v115c0,6.6,5.3,11.9,11.9,11.9h25.7L87.2,133.2z"/>
	</g>
</g>
</svg>
