<?xml version="1.0" encoding="utf-8"?>
<!-- Generator: Adobe Illustrator 24.3.0, SVG Export Plug-In . SVG Version: 6.00 Build 0)  -->
<svg version="1.1" id="Layer_1" xmlns="http://www.w3.org/2000/svg" xmlns:xlink="http://www.w3.org/1999/xlink" x="0px" y="0px"
	 viewBox="0 0 209.9 165.7" style="enable-background:new 0 0 209.9 165.7;" xml:space="preserve">
<style type="text/css">
	.st0{fill:#FFFFFF;}
</style>
<g>
	<path class="st0" d="M78.8,102.8c4.1-5,8.1-10,12.1-14.9c20.8-26,45.1-48.4,72.6-67.2c3.5-2.4,7.3-3.2,11.4-2.4
		c0.6,0.1,1.1,0.3,1.7,0.5c3,1.4,3.3,2.6,0.8,4.8c-13.5,11.7-25.8,24.5-37.2,38.2c-14.6,17.5-27.2,36.4-39.3,55.7
		c-5.1,8.2-10.1,16.4-15.2,24.6c-0.8,1.3-1.7,2.6-2.8,3.8c-2.3,2.6-4.8,2.8-7.3,0.4c-2-1.9-3.9-3.9-5.4-6.1
		c-12.5-17.5-25-35.2-37.4-52.7c-2.5-3.5-2.7-7.2-0.5-10.4c2.4-3.5,6.6-4.2,10-1.6c11.7,8.9,23.5,17.7,35.2,26.6
		C77.9,102.1,78.3,102.4,78.8,102.8z"/>
</g>
</svg>
