<?xml version="1.0" encoding="utf-8"?>
<!-- Generator: Adobe Illustrator 24.3.0, SVG Export Plug-In . SVG Version: 6.00 Build 0)  -->
<svg version="1.1" id="Layer_1" xmlns="http://www.w3.org/2000/svg" xmlns:xlink="http://www.w3.org/1999/xlink" x="0px" y="0px"
	 viewBox="0 0 209.9 165.7" style="enable-background:new 0 0 209.9 165.7;" xml:space="preserve">
<style type="text/css">
	.st0{fill:#FFFFFF;}
</style>
<g id="w09Tbl_1_">
	<g>
		<path class="st0" d="M104.5,120.4c22.9-4.3,35-15.5,36.7-33.8c1.6-16.7-7.8-32.1-23.3-38.2c-15.3-6-32.3-1.4-42.5,11.9
			c4.7,4.8,9.6,9.8,14.8,15.2c-17.3,0-33.9,0-50.8,0c0-16.9,0-33.9,0-49.7c4.3,4.2,9.3,9,14.6,14.1C68.5,24.5,85.2,16.7,105.5,17
			c14.7,0.2,27.9,4.9,39.4,13.9c23.7,18.5,31.9,50,20.4,77.6c-11.7,28-39.4,41.4-60.8,40.4C104.5,139.4,104.5,130,104.5,120.4z"/>
	</g>
</g>
</svg>
