<?xml version="1.0" encoding="utf-8"?>
<!-- Generator: Adobe Illustrator 23.0.6, SVG Export Plug-In . SVG Version: 6.00 Build 0)  -->
<svg version="1.1" id="Layer_1" xmlns="http://www.w3.org/2000/svg" xmlns:xlink="http://www.w3.org/1999/xlink" x="0px" y="0px"
	 viewBox="0 0 893 436" style="enable-background:new 0 0 893 436;" xml:space="preserve">
<style type="text/css">
	.st0{fill:none;}
	.st1{fill:#FFFFFF;enable-background:new    ;}
	.st2{enable-background:new    ;}
	.st3{fill:#FFFFFF;}
	.st4{fill:#D6113B;}
	.st5{fill:#D6113B;enable-background:new    ;}
	.st6{fill-rule:evenodd;clip-rule:evenodd;fill:#FFFFFF;enable-background:new    ;}
	.st7{fill-rule:evenodd;clip-rule:evenodd;fill:#BB0D31;}
	.st8{fill-rule:evenodd;clip-rule:evenodd;fill:#980E26;}
</style>
<g>
	<polygon class="st0" points="886.7,372.2 886.7,64.1 368.1,64.1 146.5,372.2 	"/>
	<polygon class="st0" points="389.2,172.4 411.4,172.4 400.1,141.4 	"/>
	<path class="st0" d="M305.2,140.9c-2.4,2.8-4.3,6.1-5.6,9.9l10.1-14C308,138,306.5,139.4,305.2,140.9z"/>
	<path class="st0" d="M748,246.4c0-6.2-1.8-10.8-5.5-13.6c-3.6-2.8-9.5-4.2-17.7-4.2h-6.1v35c1.3,0,2.5,0.1,3.6,0.1
		c1.1,0,2.2,0,3.3,0c7.8,0,13.4-1.4,17-4.1C746.2,256.8,748,252.4,748,246.4z"/>
	<polygon class="st0" points="392.4,269.8 417.8,269.8 404.8,235 	"/>
	<polygon class="st1" points="891.7,58.9 371.7,58.9 368.1,63.9 886.7,63.9 886.7,372.1 146.5,372.1 142.9,377.1 891.7,377.1 	"/>
	<g class="st2">
		<path class="st3" d="M332.8,133.9c1.7,0.3,3.4,0.8,5,1.5l1.9,2.3l2.4,13.3h9.2v-21.3c-4.7-1.4-9.2-2.4-13.6-3.1
			c-4.3-0.7-8.4-1-12.4-1l-6.4,8.9c2.6-0.7,5.5-1,8.5-1C329.3,133.4,331.1,133.6,332.8,133.9z"/>
		<path class="st3" d="M323.9,175.9l9.3,0.6l2,1.7v25.6c-1.6,0.1-2.9,0.2-4.1,0.3c-1.2,0.1-2.1,0.1-2.8,0.1
			c-9.8,0-17.4-3.2-22.9-9.5c-5.5-6.3-8.3-15.1-8.3-26.3c0-1.4,0-2.8,0.1-4.1l-15.4,21.5c2,5.5,5.2,10.4,9.4,14.6
			c8.2,8.2,18.8,12.3,32,12.3c4.5,0,9.1-0.4,13.7-1.3c4.7-0.9,9.5-2.1,14.4-3.9v-29.3l2-1.7l7.3-0.6v-6.2h-36.7V175.9z"/>
		<path class="st3" d="M410.6,126h-13.2L369,203.9l-7.5,1.2v6.1h27.1v-6.1l-7.9-0.9l-1.3-1.6l7.5-21.2h27.4l7.5,21.3l-0.9,1.6
			l-7.9,0.8v6.1h33.9v-6.1l-7.4-1.3L410.6,126z M389.2,174.3l10.9-31l11.2,31H389.2z"/>
		<polygon class="st3" points="519.5,130.5 500,188.1 480.4,130.4 480.4,126.9 447.5,126.9 447.5,132.9 455.8,133.7 457.3,135.3 
			457.3,201.9 455.5,204.2 447.5,205.1 447.5,211.2 476,211.2 476,205.1 468.2,204.2 466.3,201.9 466.3,135.6 491.8,211.2 
			500.9,211.2 527,135 527,202.4 525.8,204.4 518,205.1 518,211.2 552.8,211.2 552.8,205.1 544.2,204.4 542.9,202.4 542.9,135.4 
			544.2,133.7 552.8,132.9 552.8,126.9 519.5,126.9 		"/>
		<polygon class="st3" points="617.5,188.7 615.4,202 614,204 584.6,204 584.6,171.4 601,171.4 602.7,173.1 604,182.2 611.5,182.2 
			611.5,153.1 604,153.1 602.7,162.1 601,163.9 584.6,163.9 584.6,133.9 609.8,133.9 611.1,135.6 613.3,146.6 622,146.6 622,126.9 
			558.6,126.9 558.6,133.1 566.3,133.7 568.3,135.4 568.3,202.4 566.3,204.4 558.6,205.1 558.6,211.2 626.1,211.2 626.1,188.7 		"/>
	</g>
	<g>
		<path class="st4" d="M254.6,221.9l-4.6,6.3c0.9,0.1,1.7,0.3,2.6,0.5c2.3,0.5,4.6,1.3,7.1,2.5l1.7,2.3l1.9,11.4h7v-19.3
			c-4.5-1.4-8.8-2.5-13-3.2C256.3,222.2,255.4,222.1,254.6,221.9z"/>
		<path class="st4" d="M260.4,300.2l-2,2c-1.8,0.6-3.7,1-5.5,1.3c-1.8,0.3-3.6,0.4-5.4,0.4c-10.3,0-18.3-3.4-24.1-10.1
			c-3.7-4.3-6.2-9.7-7.6-16l-8.3,11.6c0,0,0,0.1,0,0.1c3.9,6.9,9.2,12.3,15.9,16.1c2.9,1.6,6.2,2.9,9.8,3.7
			c3.6,0.9,7.5,1.3,11.6,1.3c4.2,0,8.4-0.4,12.7-1.1c4.3-0.8,8.5-1.9,12.6-3.3v-19.9h-6.7L260.4,300.2z"/>
		<polygon class="st4" points="333.1,229.7 340.9,230.4 343.1,232.2 343.1,261.8 299.8,261.8 299.8,232.2 302,230.4 309.8,229.7 
			309.8,224.7 279.3,224.7 279.3,229.7 286.4,230.4 288.5,232.2 288.5,301.4 286.4,303.2 279.3,303.8 279.3,308.9 309.8,308.9 
			309.8,303.8 302,303.2 299.8,301.4 299.8,267.6 343.1,267.6 343.1,301.4 340.9,303.2 333.1,303.8 333.1,308.9 363.7,308.9 
			363.7,303.8 356.5,303.2 354.4,301.4 354.4,232.2 356.5,230.4 363.7,229.7 363.7,224.7 333.1,224.7 		"/>
		<path class="st4" d="M411.1,223.6h-8.3l-29.4,78.6l-7.2,1.5v5.2h24.6v-5.2l-8.2-0.6l-1.3-1.8l9-24h29.6l9.1,24l-0.9,1.8l-7.8,0.6
			v5.2h28.5v-5.2l-7.5-1.5L411.1,223.6z M392.4,271.6l12.4-34.8l12.9,34.8H392.4z"/>
		<polygon class="st4" points="506.8,229.7 514.3,230.8 516.6,233.1 516.6,292.1 473.7,227.8 473.7,224.7 450.1,224.7 450.1,229.7 
			458.1,230.4 460.4,232.2 460.4,300.4 458.1,302.8 450.5,303.8 450.5,308.9 477,308.9 477,303.8 469.5,302.8 467.2,300.4 
			467.2,237.6 515.1,308.9 523.3,308.9 523.3,233.1 525.6,230.8 533.1,229.7 533.1,224.7 506.8,224.7 		"/>
		<path class="st4" d="M588.2,273.7l8.9,0.6l2.1,1.7v26.1c-2.3,0.6-4.6,1-6.7,1.3c-2.1,0.3-4.2,0.4-6.1,0.4
			c-9.9,0-17.8-3.4-23.6-10.2c-5.8-6.8-8.7-16-8.7-27.8c0-11.2,2.8-20,8.4-26.4c5.6-6.4,13.2-9.6,22.9-9.6c2.5,0,4.9,0.3,7.2,0.8
			c2.4,0.5,4.7,1.3,7.1,2.5l1.8,2.3l1.9,11.4h7v-19.9c-4.2-1.2-8.3-2.1-12.4-2.8s-8-0.9-11.8-0.9c-13.8,0-24.7,3.9-32.9,11.8
			c-8.1,7.9-12.2,18.5-12.2,31.8c0,8.2,1.9,15.8,5.8,22.6c3.9,6.9,9.2,12.2,15.9,16.1c2.9,1.6,6.2,2.9,9.9,3.7
			c3.7,0.9,7.6,1.3,11.7,1.3c3.6,0,7.6-0.4,11.9-1.1c4.3-0.7,9-1.8,14.1-3.3V276l2.1-1.7l6.9-0.6v-5.2h-31.3V273.7z"/>
		<polygon class="st4" points="682.5,301.2 680.7,303.2 647,303.2 647,268 667.7,268 669.4,269.9 670.7,278.9 676.6,278.9 
			676.6,251.3 670.7,251.3 669.4,260.4 667.7,262.2 647,262.2 647,230.4 676.1,230.4 677.8,232.3 679.6,243 686.7,243 686.7,224.7 
			626.5,224.7 626.5,229.7 633.6,230.4 635.8,232.2 635.8,301.4 633.6,303.2 626.5,303.8 626.5,308.9 691.1,308.9 691.1,288.5 
			684.6,288.5 		"/>
		<path class="st4" d="M764.3,302.2c-2.2-1.2-3.9-3.6-5.2-7c-0.6-1.4-1.3-4.3-2.3-8.7s-2.2-7.7-3.6-9.9c-1.2-2-2.9-3.8-5-5.1
			c-2.1-1.4-4.8-2.5-7.9-3.3c6.7-1.5,11.8-4,15.2-7.4c3.4-3.5,5.1-8,5.1-13.4c0-7.6-2.5-13.3-7.4-17s-12.6-5.5-22.8-5.5h-32v5
			l7.1,0.7l2.1,1.8v69.2l-2.1,1.8l-7.1,0.6v5.2h29.9v-5.2l-7.2-0.6l-2.1-1.8v-29.9l0.4-0.1c2.7-0.1,4.7-0.2,5.9-0.2
			c5.8,0,10.1,1,12.9,2.9c2.8,2,5.1,5.5,6.8,10.6c0.4,1.3,1,3.4,1.8,6.1c2,7.6,4.4,12.7,7.4,15.3c1.4,1.2,3.2,2.1,5.2,2.7
			c2.1,0.6,4.5,0.9,7.5,0.9c1.4,0,2.9-0.1,4.5-0.3c1.6-0.2,3.3-0.5,5.2-0.8V304h-1.1C770.2,304,766.5,303.4,764.3,302.2z
			 M725.7,265.5c-1.1,0-2.2,0-3.3,0c-1.1,0-2.4-0.1-3.6-0.1v-35h6.1c8.1,0,14,1.4,17.7,4.2c3.6,2.8,5.5,7.3,5.5,13.6
			c0,6-1.8,10.4-5.3,13.2C739.2,264.1,733.5,265.5,725.7,265.5z"/>
		<path class="st4" d="M835.9,277.6c-0.9-2.3-2.3-4.4-4.1-6.2c-3.2-3.2-8.5-6.2-15.8-9.1c-1.4-0.5-2.4-0.9-3.1-1.2
			c-7.4-3.1-12.2-5.8-14.4-8.1c-2.1-2.2-3.2-5-3.2-8.4c0-4.7,1.5-8.4,4.6-11.1c3.1-2.7,7.2-4.1,12.5-4.1c2.2,0,4.3,0.2,6.1,0.6
			c1.9,0.4,3.6,1.1,5.2,2l1.8,2.1l1.9,12h6.6v-19.4c-3.7-1.2-7.3-2.1-10.8-2.7c-3.5-0.6-7.1-0.9-10.6-0.9c-8.8,0-15.8,2.2-21.1,6.7
			c-5.3,4.4-7.9,10.3-7.9,17.5c0,5.1,1.4,9.3,4.2,12.5c2.8,3.2,8.5,6.7,17.1,10.4c0.7,0.3,1.7,0.7,3,1.3c12,5.1,18,10.9,18,17.3
			c0,4.6-1.7,8.3-5.1,11c-3.4,2.7-8,4.1-13.9,4.1c-2.8,0-5.4-0.2-7.7-0.7c-2.4-0.5-4.5-1.2-6.3-2.1l-1.7-2.1l-1.5-14.4h-7.4v22.1
			c3,1.3,6.4,2.3,10.3,3c3.9,0.7,8,1,12.4,1c9.8,0,17.7-2.3,23.6-7c5.9-4.6,8.9-10.7,8.9-18.3C837.3,282.5,836.8,279.9,835.9,277.6z
			"/>
	</g>
	<rect x="663.7" y="168.1" class="st5" width="173.6" height="2"/>
	<g class="st2">
		<path class="st3" d="M562.3,430.3l-3.5-12c0,0,0-0.1,0-0.1c0-0.1,0-0.1,0.1-0.2c0.1,0,0.1-0.1,0.2-0.1h1.2c0.2,0,0.3,0.1,0.3,0.3
			l2.6,9.8c0,0,0,0.1,0.1,0.1s0.1,0,0.1-0.1l2.7-9.8c0.1-0.2,0.2-0.3,0.4-0.3h1.1c0.2,0,0.3,0.1,0.4,0.3l2.7,9.8c0,0,0,0.1,0.1,0.1
			c0,0,0.1,0,0.1-0.1l2.7-9.8c0-0.2,0.2-0.3,0.4-0.3l1.1,0c0.1,0,0.2,0,0.2,0.1c0.1,0.1,0.1,0.2,0,0.3l-3.5,12
			c0,0.2-0.2,0.3-0.4,0.3h-1.2c-0.2,0-0.3-0.1-0.3-0.3L567,421c0,0,0-0.1-0.1-0.1s-0.1,0-0.1,0.1l-2.6,9.2c0,0.2-0.2,0.3-0.4,0.3
			h-1.2C562.5,430.5,562.4,430.4,562.3,430.3z"/>
		<path class="st3" d="M597,428.7c0.5-0.3,1-0.8,1.3-1.4c0-0.1,0.1-0.1,0.2-0.2c0.1,0,0.2,0,0.2,0l0.7,0.4c0.2,0.1,0.2,0.3,0.2,0.4
			c-0.4,0.8-1,1.5-1.8,2c-0.8,0.5-1.8,0.7-2.9,0.7c-1.2,0-2.1-0.3-2.9-0.8c-0.8-0.5-1.4-1.3-1.7-2.3c-0.3-0.8-0.5-2-0.5-3.5
			c0-0.7,0-1.3,0-1.7c0-0.4,0.1-0.8,0.2-1.2c0.3-1.1,0.9-2,1.7-2.6s1.9-1,3.1-1c1.5,0,2.6,0.4,3.4,1.1c0.8,0.8,1.4,1.8,1.6,3.2
			c0.1,0.5,0.2,1.4,0.2,2.5c0,0.2-0.1,0.3-0.3,0.3h-8c-0.1,0-0.1,0-0.1,0.1c0,0.8,0,1.4,0.1,1.8c0.2,0.8,0.6,1.3,1.2,1.8
			c0.6,0.4,1.3,0.7,2.2,0.7C595.8,429.2,596.4,429,597,428.7z M592.7,419.9c-0.5,0.4-0.9,1-1,1.7c-0.1,0.3-0.2,0.9-0.2,1.7
			c0,0.1,0,0.1,0.1,0.1h6.4c0.1,0,0.1,0,0.1-0.1c0-0.7-0.1-1.3-0.2-1.6c-0.2-0.8-0.6-1.3-1.1-1.8s-1.3-0.7-2.1-0.7
			C594,419.2,593.3,419.4,592.7,419.9z"/>
		<path class="st3" d="M626,424.2c0,1.4-0.1,2.4-0.3,3.2c-0.3,1-0.8,1.8-1.6,2.4s-1.8,0.9-2.9,0.9c-0.7,0-1.3-0.1-1.8-0.4
			c-0.5-0.3-1-0.6-1.4-1.1c0,0-0.1,0-0.1,0c0,0-0.1,0-0.1,0.1v0.9c0,0.2-0.1,0.3-0.3,0.3h-1.1c-0.2,0-0.3-0.1-0.3-0.3v-16.8
			c0-0.2,0.1-0.3,0.3-0.3h1.1c0.2,0,0.3,0.1,0.3,0.3v5.8c0,0,0,0.1,0.1,0.1c0,0,0.1,0,0.1-0.1c0.4-0.5,0.8-0.9,1.4-1.1
			c0.5-0.3,1.2-0.4,1.8-0.4c1.2,0,2.2,0.3,3,0.9c0.8,0.6,1.3,1.4,1.6,2.5C625.9,421.8,626,422.8,626,424.2z M624.1,426
			c0.1-0.4,0.1-1.1,0.1-1.8c0-0.8,0-1.5-0.1-1.9s-0.2-0.9-0.4-1.2c-0.2-0.5-0.6-1-1-1.3s-1.1-0.5-1.7-0.5c-0.6,0-1.2,0.2-1.6,0.5
			c-0.5,0.3-0.8,0.8-1,1.4c-0.2,0.3-0.3,0.8-0.3,1.2c-0.1,0.5-0.1,1.1-0.1,1.9c0,0.8,0,1.4,0.1,1.9c0.1,0.5,0.2,0.8,0.3,1.2
			c0.2,0.6,0.5,1,1,1.4s1,0.5,1.7,0.5c0.7,0,1.3-0.2,1.8-0.5c0.5-0.4,0.9-0.8,1.1-1.4C623.9,426.9,624.1,426.5,624.1,426z"/>
		<path class="st3" d="M661.2,429.8c-0.9-0.6-1.4-1.5-1.8-2.5c-0.2-0.7-0.3-1.8-0.3-3.1c0-1.2,0.1-2.2,0.3-3c0.3-1,0.9-1.9,1.8-2.5
			c0.9-0.6,1.9-0.9,3.1-0.9c1.2,0,2.3,0.3,3.2,0.9s1.5,1.4,1.7,2.3c0.1,0.2,0.1,0.5,0.2,0.7v0.1c0,0.2-0.1,0.3-0.3,0.3l-1.1,0.1
			h-0.1c-0.1,0-0.2-0.1-0.3-0.3c0-0.1,0-0.2,0-0.3c-0.2-0.6-0.5-1.2-1.1-1.6c-0.6-0.4-1.3-0.7-2.1-0.7c-0.8,0-1.5,0.2-2.1,0.7
			c-0.6,0.4-0.9,1-1.1,1.8c-0.1,0.6-0.2,1.5-0.2,2.5c0,1.1,0.1,2,0.2,2.6c0.2,0.8,0.5,1.3,1.1,1.8c0.6,0.4,1.3,0.7,2.1,0.7
			c0.8,0,1.5-0.2,2.1-0.6c0.6-0.4,1-1,1.1-1.6c0,0,0-0.1,0-0.1l0,0c0-0.2,0.1-0.3,0.4-0.3l1.1,0.2c0.2,0,0.3,0.2,0.3,0.4l-0.1,0.4
			c-0.2,1-0.8,1.8-1.7,2.3c-0.9,0.6-2,0.9-3.2,0.9C663.1,430.7,662.1,430.4,661.2,429.8z"/>
		<path class="st3" d="M686.7,429.8c-0.9-0.6-1.5-1.5-1.8-2.5c-0.2-0.8-0.4-1.8-0.4-3.1c0-1.3,0.1-2.3,0.3-3
			c0.3-1.1,0.9-1.9,1.8-2.5s1.9-0.9,3.1-0.9c1.2,0,2.2,0.3,3.1,0.9s1.4,1.4,1.8,2.5c0.2,0.8,0.3,1.8,0.3,3.1c0,1.3-0.1,2.3-0.3,3.1
			c-0.3,1.1-0.9,1.9-1.8,2.5c-0.9,0.6-1.9,0.9-3.1,0.9C688.6,430.7,687.5,430.4,686.7,429.8z M691.8,428.5c0.6-0.4,1-1,1.2-1.8
			c0.1-0.5,0.2-1.4,0.2-2.5c0-1.2-0.1-2-0.2-2.5c-0.2-0.8-0.6-1.3-1.1-1.8s-1.3-0.7-2.1-0.7c-0.8,0-1.5,0.2-2,0.7
			c-0.6,0.4-1,1-1.2,1.8c-0.1,0.5-0.2,1.3-0.2,2.5c0,1.2,0.1,2,0.2,2.5c0.2,0.8,0.6,1.3,1.1,1.8s1.3,0.7,2.1,0.7
			C690.6,429.2,691.3,429,691.8,428.5z"/>
		<path class="st3" d="M719.5,418.9c0.8,0.8,1.2,1.8,1.2,3.1v8.2c0,0.2-0.1,0.3-0.3,0.3h-1.1c-0.2,0-0.3-0.1-0.3-0.3v-7.8
			c0-0.9-0.3-1.7-0.8-2.3c-0.5-0.6-1.3-0.9-2.1-0.9c-0.9,0-1.6,0.2-2.1,0.7s-0.9,1.1-1,1.9v8.3c0,0.2-0.1,0.3-0.3,0.3h-1.1
			c-0.2,0-0.3-0.1-0.3-0.3v-12c0-0.2,0.1-0.3,0.3-0.3h1.1c0.2,0,0.3,0.1,0.3,0.3v0.9c0,0,0,0.1,0,0.1c0,0,0.1,0,0.1,0
			c0.7-1,1.8-1.5,3.3-1.5C717.7,417.7,718.7,418.1,719.5,418.9z"/>
		<path class="st3" d="M740.2,415.2c-0.3,0.4-0.5,1.1-0.5,2.1v0.5c0,0.1,0,0.1,0.1,0.1h2.7c0.2,0,0.3,0.1,0.3,0.3v1
			c0,0.2-0.1,0.3-0.3,0.3h-2.7c-0.1,0-0.1,0-0.1,0.1v10.6c0,0.2-0.1,0.3-0.3,0.3h-1.1c-0.2,0-0.3-0.1-0.3-0.3v-10.6
			c0-0.1,0-0.1-0.1-0.1h-1.6c-0.2,0-0.3-0.1-0.3-0.3v-1c0-0.2,0.1-0.3,0.3-0.3h1.6c0.1,0,0.1,0,0.1-0.1v-0.6c0-1,0.1-1.8,0.3-2.4
			c0.2-0.6,0.6-1,1.2-1.3c0.6-0.3,1.4-0.4,2.4-0.4h0.7c0.2,0,0.3,0.1,0.3,0.3v0.9c0,0.2-0.1,0.3-0.3,0.3h-0.5
			C741.2,414.6,740.5,414.8,740.2,415.2z"/>
		<path class="st3" d="M764.2,428.7c0.5-0.3,1-0.8,1.3-1.4c0-0.1,0.1-0.1,0.2-0.2c0.1,0,0.2,0,0.2,0l0.7,0.4
			c0.2,0.1,0.2,0.3,0.1,0.4c-0.4,0.8-1,1.5-1.8,2c-0.8,0.5-1.8,0.7-2.8,0.7c-1.2,0-2.2-0.3-3-0.8s-1.4-1.3-1.7-2.3
			c-0.3-0.8-0.5-2-0.5-3.5c0-0.7,0-1.3,0-1.7c0-0.4,0.1-0.8,0.2-1.2c0.3-1.1,0.9-2,1.7-2.6s1.9-1,3.1-1c1.5,0,2.6,0.4,3.4,1.1
			c0.8,0.8,1.4,1.8,1.6,3.2c0.1,0.5,0.2,1.4,0.2,2.5c0,0.2-0.1,0.3-0.3,0.3h-8c-0.1,0-0.1,0-0.1,0.1c0,0.8,0,1.4,0.2,1.8
			c0.2,0.8,0.6,1.3,1.2,1.8s1.3,0.7,2.2,0.7C763,429.2,763.6,429,764.2,428.7z M759.9,419.9c-0.5,0.4-0.9,1-1,1.7
			c-0.1,0.3-0.2,0.9-0.2,1.7c0,0.1,0,0.1,0.1,0.1h6.4c0.1,0,0.1,0,0.1-0.1c0-0.7-0.1-1.3-0.1-1.6c-0.2-0.8-0.6-1.3-1.1-1.8
			s-1.3-0.7-2.1-0.7C761.1,419.2,760.5,419.4,759.9,419.9z"/>
		<path class="st3" d="M789.6,418.1c0.2,0.1,0.2,0.2,0.2,0.4l-0.2,1.1c-0.1,0.2-0.2,0.3-0.4,0.2c-0.3-0.1-0.7-0.1-1.2-0.1
			c-0.9,0-1.6,0.4-2.2,1s-0.8,1.4-0.8,2.3v7.3c0,0.2-0.1,0.3-0.3,0.3h-1.1c-0.2,0-0.3-0.1-0.3-0.3v-12c0-0.2,0.1-0.3,0.3-0.3h1.1
			c0.2,0,0.3,0.1,0.3,0.3v1.4c0,0.1,0,0.1,0,0.1s0.1,0,0.1-0.1c0.3-0.6,0.8-1.1,1.3-1.4c0.5-0.3,1.2-0.5,1.9-0.5
			C788.8,417.8,789.3,417.9,789.6,418.1z"/>
		<path class="st3" d="M811.5,428.7c0.5-0.3,1-0.8,1.3-1.4c0-0.1,0.1-0.1,0.2-0.2c0.1,0,0.2,0,0.2,0l0.7,0.4
			c0.2,0.1,0.2,0.3,0.1,0.4c-0.4,0.8-1,1.5-1.8,2c-0.8,0.5-1.8,0.7-2.8,0.7c-1.2,0-2.2-0.3-3-0.8s-1.4-1.3-1.7-2.3
			c-0.3-0.8-0.5-2-0.5-3.5c0-0.7,0-1.3,0-1.7c0-0.4,0.1-0.8,0.2-1.2c0.3-1.1,0.9-2,1.7-2.6s1.9-1,3.1-1c1.5,0,2.6,0.4,3.4,1.1
			c0.8,0.8,1.4,1.8,1.6,3.2c0.1,0.5,0.2,1.4,0.2,2.5c0,0.2-0.1,0.3-0.3,0.3h-8c-0.1,0-0.1,0-0.1,0.1c0,0.8,0,1.4,0.2,1.8
			c0.2,0.8,0.6,1.3,1.2,1.8s1.3,0.7,2.2,0.7C810.3,429.2,810.9,429,811.5,428.7z M807.2,419.9c-0.5,0.4-0.9,1-1,1.7
			c-0.1,0.3-0.2,0.9-0.2,1.7c0,0.1,0,0.1,0.1,0.1h6.4c0.1,0,0.1,0,0.1-0.1c0-0.7-0.1-1.3-0.1-1.6c-0.2-0.8-0.6-1.3-1.1-1.8
			s-1.3-0.7-2.1-0.7C808.5,419.2,807.8,419.4,807.2,419.9z"/>
		<path class="st3" d="M838.9,418.9c0.8,0.8,1.2,1.8,1.2,3.1v8.2c0,0.2-0.1,0.3-0.3,0.3h-1.1c-0.2,0-0.3-0.1-0.3-0.3v-7.8
			c0-0.9-0.3-1.7-0.8-2.3c-0.5-0.6-1.3-0.9-2.2-0.9c-0.8,0-1.6,0.2-2.1,0.7s-0.9,1.1-1,1.9v8.3c0,0.2-0.1,0.3-0.3,0.3h-1.1
			c-0.2,0-0.3-0.1-0.3-0.3v-12c0-0.2,0.1-0.3,0.3-0.3h1.1c0.2,0,0.3,0.1,0.3,0.3v0.9c0,0,0,0.1,0,0.1c0,0,0.1,0,0.1,0
			c0.7-1,1.8-1.5,3.3-1.5C837,417.7,838.1,418.1,838.9,418.9z"/>
		<path class="st3" d="M858.1,429.8c-0.9-0.6-1.4-1.5-1.8-2.5c-0.2-0.7-0.3-1.8-0.3-3.1c0-1.2,0.1-2.2,0.3-3c0.3-1,0.9-1.9,1.8-2.5
			s1.9-0.9,3.1-0.9c1.2,0,2.3,0.3,3.2,0.9s1.5,1.4,1.7,2.3c0.1,0.2,0.1,0.5,0.2,0.7v0.1c0,0.2-0.1,0.3-0.3,0.3l-1.1,0.1h-0.1
			c-0.1,0-0.2-0.1-0.3-0.3c0-0.1,0-0.2,0-0.3c-0.2-0.6-0.5-1.2-1.1-1.6c-0.6-0.4-1.3-0.7-2.1-0.7c-0.8,0-1.5,0.2-2.1,0.7
			s-0.9,1-1.1,1.8c-0.1,0.6-0.2,1.5-0.2,2.5c0,1.1,0.1,2,0.2,2.6c0.2,0.8,0.5,1.3,1.1,1.8s1.3,0.7,2.1,0.7c0.8,0,1.5-0.2,2.1-0.6
			c0.6-0.4,1-1,1.1-1.6c0,0,0-0.1,0-0.1l0,0c0-0.2,0.1-0.3,0.4-0.3l1.1,0.2c0.2,0,0.3,0.2,0.3,0.4l-0.1,0.4c-0.2,1-0.8,1.8-1.7,2.3
			c-0.9,0.6-2,0.9-3.2,0.9C860,430.7,859,430.4,858.1,429.8z"/>
		<path class="st3" d="M888.7,428.7c0.5-0.3,1-0.8,1.3-1.4c0-0.1,0.1-0.1,0.2-0.2c0.1,0,0.2,0,0.2,0l0.7,0.4
			c0.2,0.1,0.2,0.3,0.1,0.4c-0.4,0.8-1,1.5-1.8,2c-0.8,0.5-1.8,0.7-2.8,0.7c-1.2,0-2.2-0.3-3-0.8s-1.4-1.3-1.7-2.3
			c-0.3-0.8-0.5-2-0.5-3.5c0-0.7,0-1.3,0-1.7c0-0.4,0.1-0.8,0.2-1.2c0.3-1.1,0.9-2,1.7-2.6s1.9-1,3.1-1c1.5,0,2.6,0.4,3.4,1.1
			c0.8,0.8,1.4,1.8,1.6,3.2c0.1,0.5,0.2,1.4,0.2,2.5c0,0.2-0.1,0.3-0.3,0.3h-8c-0.1,0-0.1,0-0.1,0.1c0,0.8,0,1.4,0.2,1.8
			c0.2,0.8,0.6,1.3,1.2,1.8s1.3,0.7,2.2,0.7C887.5,429.2,888.2,429,888.7,428.7z M884.5,419.9c-0.5,0.4-0.9,1-1,1.7
			c-0.1,0.3-0.2,0.9-0.2,1.7c0,0.1,0,0.1,0.1,0.1h6.4c0.1,0,0.1,0,0.1-0.1c0-0.7-0.1-1.3-0.1-1.6c-0.2-0.8-0.6-1.3-1.1-1.8
			s-1.3-0.7-2.1-0.7C885.7,419.2,885,419.4,884.5,419.9z"/>
	</g>
	<g>
		<g class="st2">
			<path class="st3" d="M14.7,289.5c1.3,1.2,1.9,2.8,1.9,4.7v12.8c0,0.3-0.2,0.5-0.5,0.5h-1.7c-0.3,0-0.5-0.2-0.5-0.5v-1.4
				c0-0.1,0-0.1-0.1-0.2c-0.1,0-0.1,0-0.2,0.1c-0.7,0.7-1.6,1.3-2.6,1.7c-1,0.4-2.2,0.6-3.4,0.6c-1.8,0-3.3-0.5-4.5-1.4
				c-1.2-0.9-1.8-2.3-1.8-4.2c0-1.9,0.7-3.5,2.1-4.6c1.4-1.1,3.3-1.7,5.8-1.7h4.5c0.1,0,0.2-0.1,0.2-0.2v-1.4c0-1.3-0.4-2.3-1.1-3.1
				c-0.7-0.8-1.9-1.1-3.4-1.1c-1.2,0-2.2,0.2-3,0.7c-0.8,0.5-1.3,1.1-1.5,1.9c-0.1,0.3-0.3,0.4-0.6,0.4l-1.9-0.2
				c-0.3-0.1-0.5-0.2-0.5-0.4c0.3-1.4,1-2.6,2.4-3.4c1.3-0.9,3-1.3,5-1.3C11.7,287.7,13.5,288.3,14.7,289.5z M12.2,304.4
				c1.1-0.8,1.7-1.8,1.7-3.1v-3c0-0.1-0.1-0.2-0.2-0.2h-4c-1.7,0-3.1,0.3-4.1,1c-1,0.7-1.5,1.7-1.5,2.9c0,1.1,0.4,2,1.2,2.6
				c0.8,0.6,1.8,0.9,3,0.9C9.8,305.5,11.1,305.1,12.2,304.4z"/>
			<path class="st3" d="M62.3,289.6c1.2,1.2,1.8,2.8,1.8,4.9v12.6c0,0.3-0.2,0.5-0.5,0.5h-1.7c-0.3,0-0.5-0.2-0.5-0.5V295
				c0-1.4-0.4-2.6-1.3-3.5c-0.8-0.9-2-1.3-3.3-1.3c-1.3,0-2.4,0.4-3.3,1.1c-0.9,0.7-1.4,1.7-1.5,2.9v12.8c0,0.3-0.2,0.5-0.5,0.5
				h-1.7c-0.3,0-0.5-0.2-0.5-0.5v-18.5c0-0.3,0.2-0.5,0.5-0.5h1.7c0.3,0,0.5,0.2,0.5,0.5v1.4c0,0.1,0,0.1,0.1,0.2
				c0.1,0,0.1,0,0.1-0.1c1.1-1.5,2.9-2.3,5.2-2.3C59.4,287.8,61.1,288.4,62.3,289.6z"/>
			<path class="st3" d="M99.8,306.4c-1.3-1-2.2-2.3-2.8-3.9c-0.4-1.2-0.5-2.8-0.5-4.7c0-2,0.2-3.5,0.5-4.7c0.5-1.6,1.4-2.9,2.8-3.9
				c1.3-1,2.9-1.4,4.8-1.4c1.9,0,3.4,0.5,4.8,1.4c1.3,1,2.2,2.2,2.7,3.9c0.4,1.2,0.5,2.8,0.5,4.7c0,2-0.2,3.6-0.5,4.7
				c-0.5,1.7-1.4,3-2.8,3.9c-1.3,1-2.9,1.4-4.7,1.4C102.7,307.9,101.1,307.4,99.8,306.4z M107.7,304.5c0.9-0.7,1.5-1.6,1.8-2.8
				c0.2-0.8,0.3-2.1,0.3-3.9c0-1.9-0.1-3.1-0.3-3.9c-0.3-1.2-0.9-2.1-1.8-2.8c-0.9-0.7-2-1-3.3-1c-1.2,0-2.3,0.3-3.2,1
				c-0.9,0.7-1.5,1.6-1.8,2.8c-0.2,0.7-0.3,2-0.3,3.9s0.1,3.1,0.3,3.9c0.3,1.2,0.9,2.1,1.8,2.8c0.9,0.7,2,1,3.3,1
				C105.8,305.5,106.8,305.1,107.7,304.5z"/>
			<path class="st3" d="M147.7,307.1c-1.1-0.5-2-1.1-2.6-1.9c-0.6-0.8-0.9-1.6-0.9-2.6v-0.3c0-0.3,0.2-0.5,0.5-0.5h1.7
				c0.2,0,0.3,0,0.4,0.1c0.1,0.1,0.1,0.1,0.1,0.3v0.3c0,0.8,0.4,1.6,1.3,2.2c0.9,0.6,2,0.9,3.3,0.9c1.3,0,2.4-0.3,3.2-0.9
				c0.8-0.6,1.2-1.4,1.2-2.3c0-0.6-0.2-1.2-0.6-1.6c-0.4-0.4-0.9-0.7-1.5-1c-0.6-0.2-1.5-0.5-2.7-0.9c-1.4-0.4-2.6-0.8-3.5-1.2
				c-0.9-0.4-1.7-1-2.4-1.7c-0.6-0.7-1-1.7-1-2.8c0-1.6,0.6-3,1.9-3.9c1.3-1,3-1.5,5.1-1.5c1.4,0,2.7,0.2,3.8,0.7
				c1.1,0.5,1.9,1.1,2.5,1.9c0.6,0.8,0.9,1.7,0.9,2.7c0,0.3-0.2,0.5-0.5,0.5h-1.6c-0.3,0-0.5-0.1-0.5-0.3v-0.2
				c0-0.9-0.4-1.6-1.3-2.2c-0.8-0.6-2-0.9-3.4-0.9c-1.3,0-2.4,0.3-3.2,0.8c-0.8,0.5-1.2,1.3-1.2,2.2c0,0.9,0.4,1.5,1.1,2
				c0.8,0.5,1.9,0.9,3.6,1.4c1.5,0.4,2.7,0.8,3.6,1.2c0.9,0.4,1.7,1,2.4,1.7c0.7,0.7,1,1.7,1,2.9c0,1.7-0.6,3-1.9,4s-3,1.5-5.2,1.5
				C150.1,307.7,148.8,307.5,147.7,307.1z"/>
		</g>
		<path id="Empiricus_2_" class="st6" d="M158.7,140.9c0,3.3-2.6,5.7-6.9,5.7c-1.3,0-2.6-0.2-3.6-0.4l0.2-2.7c1,0.4,2.4,0.7,3.7,0.7
			c2,0,3.5-0.8,3.5-2.8c0-3.8-7.8-2.2-7.8-7.9c0-3.1,2.4-5.2,6.6-5.2c1.1,0,2.1,0.1,3.2,0.3l-0.2,2.6c-1-0.3-2.2-0.5-3.2-0.5
			c-2.2,0-3.4,1-3.4,2.5C150.9,136.6,158.7,135.3,158.7,140.9z M138.8,128.1v11.4c0,3.4-1.3,4.6-4.3,4.6c-3.4,0-4.2-1.8-4.2-4.2
			v-11.7h-2.9v12c0,3.3,1.2,6.5,6.9,6.5c4.8,0,7.4-2.4,7.4-7.3v-11.2H138.8z M119.7,143.1c-1,0.5-2.6,0.8-3.8,0.8
			c-3.9,0-5.7-2.4-5.7-6.6c0-3.8,1.7-6.7,5.5-6.7c1.3,0,2.6,0.2,3.9,0.6l0.3-2.7c-1.3-0.3-2.6-0.5-4-0.5c-6.1,0-8.9,4.1-8.9,9.7
			c0,4.8,2.2,8.7,8.3,8.7c1.7,0,3.4-0.3,4.8-0.9L119.7,143.1z M96.7,128.1v18.4h3v-18.4H96.7z M89.3,146.5h-3.7l-5.7-7.9h-0.1v7.9
			h-3v-18.3c1.3-0.1,2.8-0.1,4.9-0.1c3.8,0,6.4,1.3,6.4,5c0,2.9-2.2,4.8-5.2,5.1c0.5,0.7,1.1,1.4,1.5,2L89.3,146.5z M81.2,136.5
			c2.4,0,3.8-1.2,3.8-3c0-2-1.2-2.9-3.7-2.9c-0.6,0-1.1,0-1.5,0.1l0,5.8C80,136.4,80.5,136.5,81.2,136.5z M66.5,128.1v18.4h3v-18.4
			H66.5z M59.1,133.6c0,3.6-2.8,6.2-7.1,6.2c-0.4,0-0.9,0-1.4-0.1v6.8h-3v-18.3c1.4-0.1,3-0.1,4.7-0.1
			C56.7,128.1,59.1,130.3,59.1,133.6z M56,133.9c0-2.1-1.2-3.3-3.9-3.3c-0.6,0-1,0-1.5,0.1v6.7c0.4,0.1,0.9,0.1,1.3,0.1
			C54.4,137.4,56,136,56,133.9z M37.2,146.5h3.1l-2.8-18.4h-3.6l-3.6,10.7c-0.4,1.4-0.7,2.3-1,3.7h-0.1c-0.2-1.2-0.6-2.4-1-3.8
			l-3.5-10.6h-3.5l-2.8,18.4h3l1.2-9.5c0.2-1.7,0.4-3.2,0.5-4.8l0.1,0c0.2,1.3,0.7,2.9,1.2,4.4l3.3,9.9h3.1l3.5-10.7
			c0.5-1.4,0.7-2.6,1-3.6l0.1,0c0.1,1.2,0.3,2.5,0.6,4.5L37.2,146.5L37.2,146.5z M1.3,146.5H11V144H4.3v-5.7h6.4v-2.4H4.3v-5.2H11
			v-2.5H1.3V146.5z"/>
		<g>
			<path class="st7" d="M116.3,240.7c-1.2-0.2-2.4-0.4-3.6-0.7c-0.4-0.1-0.7-0.7-0.9-1.3l0,0c-1.1-0.1-2.2-0.2-3.3-0.3
				c-0.5-0.1-1.1-0.8-1.2-1.7c-0.4-3-0.6-6-0.6-9c-0.6,0.1-1.2,0.3-1.9,0.4c0.1,4.2,0.5,8.4,1.3,12.5c0.2,1.3-0.2,2.2-1.1,1.8
				c-2-0.8-4-1.7-6-2.7c0.3,1.5,0.7,3.1,1.2,4.6c0.2,0.7,0.1,1.1-0.2,1.1c-0.2,0-0.4-0.1-0.7-0.3c-2.9-2.1-5.9-4.5-9-7.1
				c-0.9-0.8-1.8-1.8-1.9-2.2c-1.4-3.8-1.7-7.8-1.1-11.7c0.1-0.4,0.8-1.2,1.7-1.8c1.4-0.9,2.7-1.9,4.1-2.9c0.1-0.8,0.3-1.5,0.4-2.3
				c0.2-0.7,1.1-1.9,2.1-2.7c2.3-1.8,4.6-3.8,6.9-5.9c0.3-1.1,0.6-2.1,1-3.2c0.3-0.8,1.2-2.2,2.1-3c3-3,6.1-6.1,9.2-9.5
				c0.9-1,1.3-0.8,0.8,0.4c-2.1,5.6-3.6,11.4-4.6,17.2c1.3-1,2.6-2,3.9-3c0.6-0.5,0.9,0,0.7,1.1c-0.6,3.4-1,6.8-1.2,10.2
				c0.3-0.2,0.5-0.3,0.8-0.5c0.4-0.2,0.6,0.2,0.6,1c-0.4,6.8-0.1,13.6,0.9,20.3C116.9,240.2,116.7,240.8,116.3,240.7z"/>
			<path class="st8" d="M113.9,238.8c-0.7,0-1.4,0-2.1-0.1c-1-5.6-1.3-11.3-1.1-17c0-0.7,0.4-1.3,0.7-1.5c1-0.5,2-1,3-1.6
				c-0.4,6.1-0.3,12.1,0.3,18.2C114.8,237.9,114.5,238.8,113.9,238.8z M108.9,211.9c-0.6,0.4-1.2,1.4-1.3,2.3
				c-0.6,4.5-0.9,9-0.8,13.5c0.6-0.1,1.1-0.3,1.7-0.4c0.7-0.2,1.2-1.3,1.2-2.6c0.1-4.8,0.5-9.6,1.3-14.4
				C110.3,210.8,109.6,211.4,108.9,211.9z M106.3,205.1c-1.2,1.2-2.5,2.3-3.7,3.4c-1.7,6.1-2.5,12.5-2.4,18.8c0,0.8,0.6,1.5,1.3,1.4
				c1.2-0.1,2.3-0.3,3.5-0.6c-0.2-7.5,0.7-15.1,2.6-22.4C107.9,204.3,107.3,204.1,106.3,205.1z M98.9,216.2c0.1-0.7,0-1-0.3-1
				c-0.2,0-0.5,0.1-0.8,0.4c-1.6,1.3-3.2,2.6-4.7,3.7c-0.9,5.4-0.7,10.9,0.5,16.3c0.2,0.7,1.1,1.7,2,2.2c1.2,0.7,2.3,1.3,3.5,1.8
				C97.3,231.9,97.3,223.9,98.9,216.2z"/>
		</g>
		<g class="st2">
			<polygon class="st4" points="38,182.4 38,166.1 21.7,166.1 1.3,166.1 1.3,182.4 21.7,182.4 21.7,255.9 1.3,255.9 1.3,272.2 
				21.7,272.2 38,272.2 54.5,272.2 54.5,255.9 38,255.9 			"/>
			<path class="st4" d="M105.6,166.1c-29.2,0-53,23.8-53,53c0,29.2,23.8,53,53,53s53-23.8,53-53
				C158.7,189.9,134.9,166.1,105.6,166.1z M105.6,255.6c-20.1,0-36.5-16.4-36.5-36.5s16.4-36.5,36.5-36.5s36.5,16.4,36.5,36.5
				S125.8,255.6,105.6,255.6z"/>
		</g>
	</g>
	<polygon class="st1" points="405.8,5.3 367.1,59.1 363.5,64.1 320.4,123.9 311.1,136.8 301.1,150.8 281.6,177.9 250.3,221.4 
		245.6,228 216.4,268.6 206.6,282.3 141.9,372.2 138.3,377.2 99.8,430.7 105.9,430.7 144.4,377.2 148,372.2 209,287.4 217.3,275.8 
		251.5,228.3 256.1,221.9 283.3,184 298.8,162.6 320.4,132.6 326.8,123.7 369.6,64.1 373.2,59.1 411.9,5.3 	"/>
</g>
</svg>
