<?xml version="1.0" encoding="utf-8"?>
<!-- Generator: Adobe Illustrator 24.3.0, SVG Export Plug-In . SVG Version: 6.00 Build 0)  -->
<svg version="1.1" id="Layer_1" xmlns="http://www.w3.org/2000/svg" xmlns:xlink="http://www.w3.org/1999/xlink" x="0px" y="0px"
	 viewBox="0 0 209.9 165.7" style="enable-background:new 0 0 209.9 165.7;" xml:space="preserve">
<style type="text/css">
	.st0{fill:#FFFFFF;}
</style>
<g id="_x39_6myPi_1_">
	<g>
		<path class="st0" d="M141.9,142.3c-2.5,0-5,0-7.5,0c-1.1,0-1.9-0.4-2.5-1.4c-1.9-3-3.9-6-6.3-8.7c-2.4-2.6-5-5-8-6.9
			c-3.3-2.1-6.8-4-10-6.2c-2-1.5-4.1-1.4-6.3-1.4c-2.7,0-5.3-0.2-8-0.7c-3.7-0.8-7.1-2.1-10.4-4c-2.3-1.3-4.6-2.6-6.7-4.4
			c-0.2-0.1-0.5-0.2-0.8-0.1c-5.1,0.6-10.3,0.7-15.4,0.4c-4.1-0.2-8.1-0.8-12.1-2c-4.3-1.3-8.4-3.2-11.8-6.1c-3.1-2.6-5.4-5.8-7-9.5
			c-1.8-4.3-2.7-8.7-2.5-13.4c0.2-4.6,1.3-9,3.2-13.2c1.7-3.7,3.9-7,6.7-9.9c2.9-3,6.3-5.4,10-7.3c0.3-0.2,0.6-0.5,0.8-0.8
			c1.8-4.1,4.5-7.5,7.9-10.3c5.8-4.9,12.6-7.5,20.1-8.6c4.8-0.7,9.5-0.4,14.1,1c0.2,0.1,0.6,0,0.7-0.1c2.4-2.4,5.5-3.5,8.7-4.3
			c5.3-1.3,10.7-1.3,16.1-0.9c4.4,0.3,8.5,1.4,12.5,3.2c1.3,0.6,2.4,1.6,3.6,2.3c0.2,0.1,0.5,0.3,0.8,0.3c7.3-0.4,14,1.3,20.5,4.6
			c5.7,2.9,10.6,6.8,14.5,11.8c3.2,4.2,5.5,8.8,6.2,14.1c0,0.2,0.2,0.5,0.4,0.7c2.4,1.4,4,3.5,5.4,5.9c2.4,4,4.1,8.4,4.4,13.1
			c0.5,8.3-1.3,16-6.4,22.7c-3.5,4.6-8,7.7-13.6,9.2c-0.3,0.1-0.5,0.3-0.7,0.5c-3.1,4.6-7.2,7.9-12.3,10.1c-0.7,0.3-1.4,0.6-2.1,0.8
			c-0.5,0.2-0.6,0.4-0.7,0.9c-0.1,2.4,0.4,4.8,1.1,7.1c0.8,2.8,1.9,5.5,3.3,8c0.8,1.6-0.2,3.3-2,3.3
			C147.1,142.3,144.5,142.3,141.9,142.3z M110.5,115.7c0.3,0.2,0.4,0.3,0.6,0.4c3.9,2.2,7.8,4.6,11.4,7.3c2.8,2.1,5.4,4.5,7.6,7.2
			c1.6,2.1,3.2,4.3,4.7,6.5c0.4,0.5,0.7,0.8,1.4,0.8c3.1,0,6.2,0,9.3,0c0.2,0,0.5,0,0.8,0c-0.1-0.2-0.1-0.4-0.2-0.5
			c-1.3-3.2-2.4-6.4-2.8-9.9c-0.3-2-0.4-4,0.2-6c0.4-1.2,1.1-2,2.2-2.4c3.9-1.2,7.3-3.2,10.3-6.1c2.4-2.4,4.1-5.1,4.7-8.5
			c0.5-2.6,0.4-5.2-0.1-7.8c-0.3-1.5,0.5-2.6,1.8-2.8c1.2-0.2,2.4,0.6,2.6,2c0.4,2.3,0.6,4.6,0.4,6.9c-0.1,1.1-0.3,2.2-0.4,3.3
			c0.1,0,0.2-0.1,0.3-0.1c4.3-2,7.5-5.2,9.9-9.2c1.7-2.9,2.7-6.1,3.3-9.5c0.4-2.5,0.7-5,0.3-7.5c-0.5-3.8-2-7.2-4.2-10.2
			c-2.7-3.6-6.2-6.2-10.6-7.4c-5.5-1.6-10.8-0.6-15.7,2c-1.2,0.7-2.6,0.4-3.2-0.8c-0.6-1.2-0.2-2.5,1-3.1c0.9-0.5,1.9-1,2.9-1.4
			c5.5-2.2,11.1-2.7,16.8-0.9c0.8,0.3,1.7,0.6,2.6,0.9c0-0.2,0-0.4-0.1-0.5c-0.5-2.1-1.4-4.1-2.4-6c-2.4-4.2-5.6-7.6-9.4-10.4
			c-5.5-4.2-11.6-6.8-18.5-7.7c-1.2-0.2-2.3-0.2-3.6-0.3c0.3,0.4,0.4,0.6,0.6,0.9c0.9,1.6,1.8,3.1,2.7,4.7c0.6,1.2,0.1,2.4-1.1,2.9
			c-1.1,0.5-2.3,0-2.9-1.1c-0.8-1.4-1.5-2.9-2.4-4.2c-2.7-3.8-6.1-6.5-10.6-7.9c-3-1-6.2-1.2-9.4-1.3c-4.5-0.1-8.9,0.2-13.1,1.6
			c-1.2,0.4-2.4,1-3.6,1.5c1.8,1.3,3.5,2.4,5.1,3.6c1.1,0.8,1.3,2.2,0.5,3.2c-0.7,1-2.1,1.1-3.1,0.4c-0.5-0.3-0.9-0.7-1.4-1.1
			c-4.5-3.3-9.5-5-15.1-5c-5.1,0-10,1.1-14.7,3.4c-4.2,2-7.8,4.7-10.5,8.6c-3.9,5.6-3.6,12.5,0.1,17.1c0.8,1,0.6,2.5-0.4,3.2
			s-2.3,0.6-3.2-0.5c-1.9-2.4-3.1-5.1-3.6-8.1c-0.2-1.2-0.3-2.5-0.4-3.8c-0.1,0-0.2,0.1-0.3,0.1c-5.7,3.1-10.2,7.5-13.1,13.3
			c-3.7,7.5-4.6,15.3-1.6,23.2c1.4,3.7,3.6,6.7,6.7,9.2c3.6,2.8,7.7,4.4,12,5.4c5.7,1.3,11.5,1.4,17.3,1.2c1.2,0,2.3-0.1,3.6-0.2
			c-0.7-1-1.3-1.9-1.9-2.9c-2-3.2-3.2-6.6-3.6-10.4c-0.3-3.6,0.1-7,1.2-10.4c1.7-5.2,4.8-9.4,9.2-12.5c4.8-3.5,10.2-4.9,16.1-5
			c1.7,0,3.2-0.3,4.6-1.1c1.9-1.1,3.5-2.3,4-4.6c0.1-0.3,0.2-0.6,0.4-0.8c0.7-0.8,1.8-1,2.7-0.6c1,0.5,1.4,1.5,1.2,2.6
			c-0.5,2.1-1.6,3.7-3.2,5.1c-0.7,0.7-1.5,1.2-2.3,1.9c0.1,0.1,0.2,0.2,0.3,0.3c3,2.9,3.5,6.3,2.2,10.1c-0.3,0.9-0.9,1.5-1.9,1.6
			c-1.8,0.2-2.9-1.3-2.4-3.1c0.3-0.9,0.5-1.8,0.4-2.7c-0.3-2.5-2.3-3.7-4.5-4.1c-2-0.4-4-0.1-6,0.3c-6.9,1.3-12.1,4.9-15.3,11.2
			c-2.9,5.7-3.2,11.5-0.7,17.4c1.1,2.5,2.7,4.8,4.6,6.8c2.3,2.4,4.8,4.4,7.8,5.9c2.8,1.4,5.7,2.3,8.7,2.9c2.8,0.6,5.6,1.2,8.5,0.9
			c3.1-0.3,6.1-1.2,8.8-2.8c2.6-1.5,4.6-3.7,6.3-6.2c2.3-3.5,4-7.2,5.7-11.1c1.6-3.6,3.5-6.9,6.5-9.6c5.9-5.4,14.8-6.4,21.7-2.4
			c2,1.2,3.6,2.8,4.5,5c0.5,1.3,0.1,2.6-1.1,3.1c-1.3,0.5-2.4,0-3.1-1.3c-0.4-0.8-1-1.6-1.8-2.2c-4.2-3.2-10.2-3.4-14.8-0.6
			s-7,7.2-8.7,12.1c-1.1,3.4,0.6,7.6,4.1,9.5c2.7,1.5,6.7,1.3,9.2-0.8c2.4-2,3.4-4.5,3.2-7.6c-0.1-1.4,0.8-2.4,2-2.4
			c1.3-0.1,2.3,0.8,2.4,2.2c0.6,7.5-4.9,13.8-12.4,14.1c-4.1,0.1-7.5-1.3-10.2-4.4c-0.9-1-1.5-2.1-2.3-3.3
			C119.8,109.3,116.2,113.5,110.5,115.7z"/>
		<path class="st0" d="M129.8,61.7c0.3,1.1,0.6,2.2,0.7,3.4c0.4,3.6-1.4,7-4.6,8.7c-0.4,0.2-0.8,0.4-1.2,0.6
			c-1.1,0.4-2.3-0.2-2.7-1.3c-0.4-1.1,0-2.4,1.1-2.9c1-0.5,1.8-1,2.4-2c1-1.7,0.8-4-0.6-5.9c-0.8-1-1.7-1.8-2.9-2.3
			c-6.1-2.7-10.1-7.1-11.7-13.6c-0.5-2-0.5-4-0.1-6c0.2-1.3,1.3-2,2.5-1.9c1.2,0.2,2.1,1.2,1.9,2.5c-0.9,5.2,1.3,9.2,5.1,12.4
			c4.1,3.4,8.7,4.6,13.9,3c1.9-0.6,3.5-1.8,4.6-3.4c0.8-1.2,2.2-1.5,3.2-0.8c1.1,0.8,1.3,2.1,0.4,3.3c-2.3,3.3-5.5,5-9.4,5.7
			C131.6,61.5,130.7,61.6,129.8,61.7z"/>
		<path class="st0" d="M99.9,98.9c-6.7-0.1-12.7-4.6-14.6-10.9c-0.3-1,0-2,0.7-2.5c0.8-0.6,1.8-0.7,2.6-0.1c0.5,0.4,0.8,0.9,1,1.5
			c0.8,2.2,2.1,4,3.9,5.4c3.7,2.9,9.2,2.8,12.9-0.1c2.6-2.1,4-4.8,4.2-8.1c0.1-1.5,1-2.4,2.4-2.3c1.3,0.1,2.1,1.1,2.1,2.6
			c-0.2,7-5.6,13.1-12.5,14.3C101.7,98.7,100.8,98.8,99.9,98.9z"/>
		<path class="st0" d="M82.3,43.5c4.9,0.1,9,1.9,12.4,5.4c0.3,0.3,0.7,0.7,0.9,1c0.7,0.9,0.5,2.1-0.3,2.9c-0.8,0.8-2.1,0.8-3,0
			c-0.8-0.7-1.6-1.5-2.4-2.2c-3.3-2.4-6.9-3.4-10.9-2.2c-3.4,1.1-5.3,3.7-6.2,7c-0.3,1-0.4,2-0.6,3c-0.2,1.3-1.2,2-2.5,1.9
			c-1.1-0.1-2-1.2-1.9-2.3c0.4-4.3,1.9-8.2,5.2-11.1C75.7,44.5,78.8,43.4,82.3,43.5z"/>
		<path class="st0" d="M49.8,83.9c-3.7-0.1-7.8-2.1-11.1-5.7c-0.8-0.9-0.7-2.3,0.2-3.1c0.9-0.8,2.2-0.7,3.1,0.2c1.9,2,4.1,3.5,6.8,4
			c2.5,0.5,4.9,0.3,7.1-1.1c1.7-1.1,2.8-2.7,3.4-4.5c0.3-1.1,0.6-2.2,0.7-3.4c0.2-1.3,1.1-2.1,2.4-2c1.2,0.1,2.2,1.1,2.1,2.3
			C63.9,77.9,59,84,49.8,83.9z"/>
	</g>
</g>
</svg>
