<?xml version="1.0" encoding="utf-8"?>
<!-- Generator: Adobe Illustrator 24.3.0, SVG Export Plug-In . SVG Version: 6.00 Build 0)  -->
<svg version="1.1" id="Layer_1" xmlns="http://www.w3.org/2000/svg" xmlns:xlink="http://www.w3.org/1999/xlink" x="0px" y="0px"
	 viewBox="0 0 209.9 165.7" style="enable-background:new 0 0 209.9 165.7;" xml:space="preserve">
<style type="text/css">
	.st0{fill:#FFFFFF;}
</style>
<g id="DMO7GT_1_">
	<g>
		<path class="st0" d="M134.1,97.9c8.7,12,15.3,24.7,15.5,40c-2.4-0.7-4.8-1.5-7.3-2.3c-1.7,3.7-3.4,7.3-5.2,11.1
			c-0.8-5.5-1.7-10.7-2.4-16c-1.4-9.6-4.8-18.4-10.8-26.1c-0.9-1.2-1.8-2.4-2.9-3.7c-6.4,5.9-12.8,11.6-18.9,17.5
			c-11.4,11.1-22.7,22.3-34.1,33.4c-5.6,5.4-12.4,7-20,5.6c-9.4-1.9-15.7-7.9-20.4-15.8c-4.1-7-6.2-14.6-6-22.6
			c0.2-11.9,5-21.6,15.4-27.8C50.2,83.3,62.4,74,74.4,64.5c8.3-6.5,16.4-13.2,24.3-20.1c10.7-9.3,20.7-19.4,28.7-31.2
			c0.9-1.3,1.6-2.7,2.5-4c0.4-0.5,1.2-1,1.8-1c7.5-0.4,14.7,1.3,21.2,4.9c3.9,2.1,7.5,4.8,11.2,7.2c2.8-2.7,5.7-5.5,8.8-8.5
			c2.3,2.5,4.7,5,6.8,7.7c3.7,4.6,6.8,9.6,8.1,15.6c1.7,7.7-0.6,14.3-6.2,19.6c-2.3,2.2-5.1,3.8-7.7,5.7
			c-10.2,7.5-20.4,14.9-30.6,22.4c-1.7,1.2-3.3,2.5-5.2,4c7.5,5.5,15,10.5,22,16.1s13.6,11.7,20.8,17.9c-2.5,0.6-4.6,1.5-6.8,1.6
			c-4.4,0.3-7.3,2.4-8.6,6.6c-0.3,1-1,1.9-1.6,3.1c-3.3-7.2-6.5-14.2-11.4-20.2C147.6,105.6,141,101.6,134.1,97.9z M51.7,90
			c1.7,1.5,3.5,2.7,5,4.3c4.7,5,7,11.2,8.2,17.9c1.6,9.3-1.2,17.1-8.4,23.1c-4.6,3.8-11,3.8-15.2-0.8c-3.3-3.5-4.5-7.9-5.4-12.3
			c-0.1-0.5,0.4-1.3,0.8-1.7c2.7-2.4,5.5-4.8,8.2-7.2c3.4-3,6.8-6.1,10.2-9.1c-1.3-2.6-2.9-4.8-5.1-6.5c-2.9-2.3-6.1-2.6-9.2-0.8
			c-6,3.4-9.7,8.7-11.4,15.4c-1.7,6.8-0.8,13.5,1.6,19.9c2.6,7,6.7,12.8,13.5,16.5c7.2,3.9,17.3,2.8,22.1-6.8
			c3.2-6.3,4.2-13.1,4.5-20c0.4-8.7-0.1-17.3-1.9-25.7c16-5.6,28.5-16.4,41.7-26.5c-1-1-1.8-1.8-2.7-2.5c-4.5-3.8-9.9-5.7-15.6-6.9
			c-1-0.2-1.6,0-2.3,0.5c-10,7.7-19.9,15.4-29.9,23C57.5,86,54.5,88,51.7,90z M131,62.2c1.2,2.4,2.8,4.9,3.9,7.6
			c1.1,2.7,1.7,5.6,2.6,8.4c0,0,0.2-0.2,0.4-0.3c11.6-8.9,23.2-17.7,35.5-25.6c2.3-1.5,4.3-3.5,5.9-5.7c3-4.3,2.6-9,0.7-13.6
			c-1.7-4.2-4.3-7.7-7.1-10.9C158.9,35.4,145,48.7,131,62.2z M114.6,76c-6,4.4-11.8,8.8-17.7,13.1c-5.6,4-11.4,8-17.8,10.7
			c-1.7,0.7-2,1.7-1.8,3.3c0.4,4.4,0.9,8.9,0.9,13.3c0,5.3-0.6,10.7-0.9,15.9c0,0,0.1-0.1,0.3-0.2c5.7-5.5,11.3-11.1,17.1-16.5
			c7.9-7.4,16-14.6,24-22c0.4-0.4,0.9-1,0.8-1.4C118.6,86.6,117.2,81.1,114.6,76z M159.4,25.4c-3.6-2.3-6.7-4.6-10.1-6.4
			c-4.3-2.3-8.9-3.8-13.8-3.9c-0.6,0-1.3,0.4-1.6,0.9c-6.8,10.4-15.3,19.2-24.3,27.7c-0.5,0.5-1,1-1.7,1.8c8,0.9,14,4.7,19,10.7
			C137.7,45.9,148.3,35.9,159.4,25.4z M57.6,111.4c-0.5,0.5-0.9,0.8-1.3,1.2c-3.8,3.4-7.7,6.7-11.4,10.1c-0.6,0.5-1.3,1.5-1.1,2
			c0.5,1.6,1.2,3.1,2.1,4.5c1.4,2.1,3.6,2.6,5.6,1c1.7-1.3,3.2-3,4.4-4.9C58.7,121,59,116.4,57.6,111.4z"/>
	</g>
</g>
</svg>
