<svg xmlns="http://www.w3.org/2000/svg" viewBox="0 0 3374.11 1000"><g id="Cor_inverso" data-name="Cor inverso"><path id="Empiricus" d="M3374.11,557.63c0,53.51-42.3,92.38-111.8,92.37-21.16,0-41.88-2.59-58.71-6.91l2.6-44.46a185.78,185.78,0,0,0,60.43,10.8c31.94,0,57.84-13.39,57.84-44.89,0-61.31-127.35-35.4-127.35-129.5,0-50.08,39.29-85,107.06-85,17.25,0,35,2.16,52.66,5.18l-2.6,41.87a183.36,183.36,0,0,0-52.66-8.19c-36.25,0-54.8,16.82-54.8,41C3246.79,488.12,3374.11,466.55,3374.11,557.63ZM3050.25,350V535.27c0,55.17-21.89,75.31-70.06,75.32-54.76,0-67.9-29.78-67.9-69.21V350h-47.74V544.89c0,54.31,19.72,105.11,112.57,105.11,77.52,0,120-39.42,120-118.25V350ZM2738.89,593.84c-16.12,7.83-41.79,13.5-61.83,13.5-64,0-93.18-38.77-93.18-107.12,0-61.39,27.87-108.43,89.26-108.42,21.33,0,42.24,3.49,63.58,10l5.21-43.54c-20.45-4.79-43.1-8.27-64.87-8.27-98.83,0-145,66.61-145,158.05,0,78.38,36.12,142,134.55,142,28.3,0,55.72-5.22,77.93-13.93ZM2363.63,350V650h48.44V350Zm-120,300H2183.1l-92.77-129h-2.21V650H2040V351.77c21.64-1.33,46.38-1.77,80-1.77,61.86,0,104.27,21.66,104.27,80.86,0,47.71-35.79,78.2-84.4,83.5,8.41,10.59,17.68,22.09,25.2,31.81ZM2111.52,485.64c38.89,0,62.31-19.89,62.31-49.48,0-32.71-20.33-46.82-60.53-46.82-9.27,0-18.12.43-25.19.87v94.55C2092.55,485.2,2100.93,485.64,2111.52,485.64ZM1871.54,350V650H1920V350Zm-120,89.69c0,57.89-46.39,101.18-115.76,101.18a190.44,190.44,0,0,1-22.08-.89V650h-48.16V351.77c23-.88,48.59-1.77,76.43-1.77C1712.66,350,1751.54,384.47,1751.54,439.69Zm-49.93,4c0-34-19.88-54.34-63.17-54.34-9.29,0-16.8,0-24.74.87V499.33a163.34,163.34,0,0,0,21.21,1.78C1675.11,500.67,1701.61,478.57,1701.61,443.68ZM1394.43,650h51.11l-45.77-300h-58.23l-59.12,175.12c-7.1,22.21-12,37.32-16.43,59.55h-.9c-3.55-19.56-9.32-39.57-16.44-61.34L1190.88,350H1133.1l-44.89,300h49.33l19.12-155.12c3.09-28.44,6.22-52,8-77.77h.89c3.55,21.77,11.11,47.55,19.11,71.09L1238.43,650h50.22l56.45-174.21c7.56-22.24,12-41.8,15.56-58.68h.88c2.23,19.55,4.46,41.33,9.34,73.34L1394.43,650ZM810,650H968.21V608.66H858.44V515.33H962.89V475.78H858.44V390.44H968.21V350H810Z" style="fill:#fff;fill-rule:evenodd"/><g id="Marca"><path d="M551.64,913.63q-33.95-4.86-68.24-12.79c-6.64-1.59-14-12.81-16.06-24.93l-.08-.47q-30.9-1.77-62-5.68c-9.89-1.35-19.86-15.64-21.84-31.73A1605.68,1605.68,0,0,1,371.4,668.11q-17.56,4.13-35.11,7.57a1496,1496,0,0,0,24.28,235C365.19,936,356,951.18,339,944.09Q283.08,921.7,226,892.85q9.5,43.42,22.71,86.19c4.1,13.4,2.29,21-4.13,21-3.19,0-7.51-1.85-12.81-5.76q-82-59.38-169-134.13c-17-14.76-33.56-33.48-36.42-41.37A439,439,0,0,1,5.62,598.85c1.32-8.18,15.32-23,31.13-33.87q38.18-25.56,77.12-54.59,3.54-21.42,8.24-42.7c2.87-12.93,20.87-35.47,39.94-51.08q64.23-51.75,130.47-110.15Q301,276.56,310.94,247c5.13-15.24,22.85-40.61,39.27-57.16Q434.57,105.45,522.81,12c17.25-18.26,24.06-15.51,15.71,6.73a1770.67,1770.67,0,0,0-87.28,323q36.48-27.36,73.5-57.08c11.18-9,17.11,0,13.7,20.48q-16.05,95.73-22.85,192.4,7.67-4.27,15.36-8.71c6.95-4.08,11.7,4.45,10.79,19.12a1788.89,1788.89,0,0,0,17.57,380.93C561.53,903.49,558.22,914.58,551.64,913.63Z" style="fill:#bb0d31;fill-rule:evenodd"/><path d="M506.68,876.81c-13.1-.18-26.28-.6-39.42-1.37a1516,1516,0,0,1-21-320.1c.48-12.27,6.6-24.87,13.45-28.36,18.5-9.17,37.21-18.94,55.87-29.4a2031.61,2031.61,0,0,0,4.75,342.2C522.35,860.37,516.43,877.07,506.68,876.81ZM411.15,371.23c-10.88,8-21.75,27.21-24,43.25A1611,1611,0,0,0,371.4,668.11c10.39-2.45,21-5.06,31.39-7.88,12.77-3.26,22.95-25.17,23.31-48.46a1779.55,1779.55,0,0,1,25.14-270C437.89,351.84,424.4,361.65,411.15,371.23ZM362.44,243.29q-35.24,32.49-69.92,63.17a1231.11,1231.11,0,0,0-45.71,353.33c.24,15.84,11.17,27.87,23.89,26.43,21.81-2.71,43.76-6.24,65.59-10.54a1504.42,1504.42,0,0,1,49.64-421.36C392.61,229.29,382.4,224.74,362.44,243.29ZM224.09,451.78c2.66-12.52.15-19.12-6-19.11-3.86,0-9.16,2.58-15.54,7.91q-44.9,37.11-88.66,69.81A798.11,798.11,0,0,0,123.08,816c2.9,12.93,20,32,37.58,42.19,21.78,12.27,43.9,23.79,65.37,34.69A1053.59,1053.59,0,0,1,224.09,451.78Z" style="fill:#980e26;fill-rule:evenodd"/></g></g></svg>