<?xml version="1.0" encoding="utf-8"?>
<!-- Generator: Adobe Illustrator 25.2.1, SVG Export Plug-In . SVG Version: 6.00 Build 0)  -->
<svg version="1.1" id="Layer_1" xmlns="http://www.w3.org/2000/svg" xmlns:xlink="http://www.w3.org/1999/xlink" x="0px" y="0px"
	 viewBox="0 0 23.8 18.5" style="enable-background:new 0 0 23.8 18.5;" xml:space="preserve">
<style type="text/css">
	.st0{fill:#F14336;}
</style>
<g id="MMyDcO.tif">
	<g>
		<path class="st0" d="M1.6,15.2c0-4,0-7.9,0-11.9c0-0.1,0.1-0.3,0.1-0.4c0.3-1,1-1.5,2.1-1.5c5.4,0,10.8,0,16.2,0
			c1,0,1.7,0.5,2,1.5c0,0.1,0.1,0.3,0.1,0.4c0,4,0,7.9,0,11.9c-0.3,1.1-0.9,1.9-2.2,1.9c-5.4,0-10.8,0-16.2,0
			c-0.9-0.1-1.6-0.5-2-1.3C1.8,15.6,1.7,15.4,1.6,15.2z M3.4,4c0,0-0.1,0.1-0.1,0.1c0,0,0,0,0,0.1c0,3.5,0,7,0,10.5
			c0,0.6,0.2,0.7,0.8,0.7c3.6,0,7.3,0,10.9,0c1.7,0,3.3,0,5,0c0.5,0,0.6-0.2,0.7-0.6c0-0.1,0-0.2,0-0.3c0-3.3,0-6.6,0-9.8
			c0-0.1,0-0.2,0-0.4c-0.1,0.1-0.2,0.2-0.3,0.2C18,6.7,15.6,8.8,13.2,11c-0.9,0.8-2,0.8-2.8,0C8.3,8.9,6.1,6.8,3.9,4.7
			C3.7,4.5,3.6,4.2,3.4,4z M19.4,3.1C19.4,3.1,19.4,3.1,19.4,3.1C14.5,3,9.5,3,4.5,3c0.2,0.2,0.3,0.3,0.4,0.4
			c2.2,2.1,4.4,4.2,6.5,6.3c0.4,0.4,0.4,0.4,0.8,0c2.1-1.9,4.1-3.8,6.2-5.6C18.8,3.8,19.1,3.4,19.4,3.1z"/>
	</g>
</g>
</svg>
