<?xml version="1.0" encoding="utf-8"?>
<!-- Generator: Adobe Illustrator 24.2.3, SVG Export Plug-In . SVG Version: 6.00 Build 0)  -->
<svg version="1.1" id="Camada_1" xmlns="http://www.w3.org/2000/svg" xmlns:xlink="http://www.w3.org/1999/xlink" x="0px" y="0px"
	 viewBox="0 0 25 26" style="enable-background:new 0 0 25 26;" xml:space="preserve">
<style type="text/css">
	.st0{opacity:0.6;}
	.st1{fill:none;}
	.st2{fill:none;stroke:#FFFFFF;stroke-width:1.2;}
	.st3{fill:#FFEBB3;}
</style>
<g id="Grupo_39" transform="translate(-748.077 -170.617)">
	<g id="Elipse_3_1_" transform="translate(748.077 170.617)" class="st0">
		<circle class="st1" cx="12.5" cy="13" r="12"/>
		<circle class="st2" cx="12.5" cy="13" r="11.4"/>
	</g>
	<path id="play_1_" class="st3" d="M765.8,183.4l-7.7-4.4c-0.2-0.1-0.4-0.1-0.6,0c-0.2,0.1-0.3,0.3-0.3,0.6v8.9
		c0,0.2,0.1,0.4,0.3,0.6c0.1,0.1,0.2,0.1,0.3,0.1c0.1,0,0.2,0,0.3-0.1l7.7-4.4c0.3-0.2,0.4-0.6,0.2-0.9
		C765.9,183.5,765.9,183.4,765.8,183.4L765.8,183.4z M758.4,187.3v-6.7l5.8,3.4L758.4,187.3z"/>
</g>
</svg>
