<?xml version="1.0" encoding="utf-8"?>
<!-- Generator: Adobe Illustrator 25.2.3, SVG Export Plug-In . SVG Version: 6.00 Build 0)  -->
<svg version="1.1" id="Capa_1" xmlns="http://www.w3.org/2000/svg" xmlns:xlink="http://www.w3.org/1999/xlink" x="0px" y="0px"
	 viewBox="0 0 278.5 242" style="enable-background:new 0 0 278.5 242;" xml:space="preserve">
<style type="text/css">
	.st0{fill:#535353;}
</style>
<g id="zUS15c.tif">
	<g>
		<path class="st0" d="M109.5,242.6c-3.4,0-6.7,0-10.1,0c-1.8-0.2-3.6-0.5-5.5-0.6c-10.4-0.8-19.5-4.2-26.2-12.7
			c-5.4-6.9-7.1-14.8-7.1-23.4c0.1-55,0-109.9,0.1-164.9c0-4.2,0.3-8.5,1.2-12.5C64.5,16.3,71,7,82.8,2.2c6.1-2.5,12.6-2.8,19-2.8
			c16.8,0,33.6,0.3,50.5,0.4c10.8,0.1,21.5-0.2,32.3,0.2c15.6,0.6,28.3,11.4,31.6,26.7c0.9,4.1,1.1,8.3,1.7,12.5
			c0,57.1,0,114.3,0,171.4c-0.2,0.9-0.4,1.8-0.5,2.7c-1.3,10-6,18-14.6,23.4c-6.7,4.3-14.3,5.2-22,5.2c-18.8,0.1-37.6,0-56.4,0.1
			C119.3,242,114.4,242.4,109.5,242.6z M67.5,122c0,28.7,0,57.5,0,86.2c0,5.4,1.1,10.6,4.1,15.2c5.6,8.4,13.8,11.7,23.5,11.7
			c29.5,0.1,59.1,0.1,88.6,0c16,0,27.1-11.3,27.1-27.3c0-57.2,0-114.4-0.1-171.6c0-3.4-0.6-6.9-1.6-10.2
			c-3.7-11.8-14.4-19.4-26.6-19.4c-28.5,0-57,0-85.5,0C92,6.7,87,7.1,82.5,9.9c-10,6.1-15,15.1-15,26.8
			C67.5,65.1,67.5,93.6,67.5,122z"/>
		<path class="st0" d="M202.5,30.9c0,55.8,0,111.4,0,167.1c-42.3,0-84.6,0-127,0c0-55.6,0-111.2,0-167.1
			C117.7,30.9,160,30.9,202.5,30.9z M82.2,191.2c38,0,75.8,0,113.5,0c0-51.4,0-102.5,0-153.6c-38,0-75.7,0-113.5,0
			C82.2,88.9,82.2,140,82.2,191.2z"/>
		<path class="st0" d="M138.1,228.4c-6.2,0-11.2-5.1-11.2-11.3c0.1-6.1,5-11,11.1-11.1c6.1,0,11.3,5.2,11.2,11.3
			C149.2,223.4,144.2,228.4,138.1,228.4z M142.5,217.1c-0.1-2.4-2.3-4.4-4.6-4.3c-2.3,0.1-4.2,2.1-4.2,4.4c0,2.4,2.1,4.4,4.5,4.4
			C140.5,221.7,142.6,219.5,142.5,217.1z"/>
		<path class="st0" d="M139,23.3c-4,0-8,0-12,0c-0.7,0-1.5,0-2.2-0.1c-1.8-0.3-3.8-0.9-3.8-3c0-2.1,1.9-3,3.8-3
			c9.6-0.1,19.2-0.1,28.8,0c1.9,0,3.8,0.7,3.9,2.9c0.1,2.4-2,3.1-3.9,3.1C148.7,23.4,143.8,23.3,139,23.3
			C139,23.3,139,23.3,139,23.3z"/>
	</g>
</g>
</svg>
