<?xml version="1.0" encoding="utf-8"?>
<!-- Generator: Adobe Illustrator 25.2.3, SVG Export Plug-In . SVG Version: 6.00 Build 0)  -->
<svg version="1.1" id="Capa_1" xmlns="http://www.w3.org/2000/svg" xmlns:xlink="http://www.w3.org/1999/xlink" x="0px" y="0px"
	 viewBox="0 0 278.5 242" style="enable-background:new 0 0 278.5 242;" xml:space="preserve">
<style type="text/css">
	.st0{fill:#535353;}
</style>
<g id="zSMrfa_1_">
	<g>
		<path class="st0" d="M103.9,241.6c0-53.6,0-106.8,0-160.6c15.9,0,31.5,0,47.9,0c0,6.5,0,12.9,0,21.6
			c10.8-15.7,24.1-24.2,40.8-25.7c40.1-3.7,61.5,14,65.7,48.4c2.2,18.3,1.7,37,2,55.5c0.3,20.1,0.1,40.3,0.1,60.9
			c-16.8,0-33.1,0-50.1,0c0-13,0.2-25.9,0-38.7c-0.3-19.6-0.2-39.3-1.6-58.8c-1-14.5-9.1-22.4-21.1-23.2
			c-16.8-1.1-26.9,4.9-30.8,19.5c-1.8,6.9-2.7,14.3-2.8,21.5c-0.3,26.3-0.1,52.7-0.1,79.6C137.2,241.6,121,241.6,103.9,241.6z"/>
		<path class="st0" d="M72,242c-17,0-33.1,0-49.8,0c0-53.6,0-106.9,0-160.9c16.4,0,32.8,0,49.8,0C72,134.6,72,187.9,72,242z"/>
		<path class="st0" d="M46.9,58.1c-16.6,0-28.9-12.3-28.9-29C18,12.7,30.7,0,47,0c16.1,0,29.1,13,29.1,29.2
			C76.2,45.4,63.4,58.1,46.9,58.1z"/>
	</g>
</g>
</svg>
