<?xml version="1.0" encoding="utf-8"?>
<!-- Generator: Adobe Illustrator 25.2.3, SVG Export Plug-In . SVG Version: 6.00 Build 0)  -->
<svg version="1.1" id="Capa_1" xmlns="http://www.w3.org/2000/svg" xmlns:xlink="http://www.w3.org/1999/xlink" x="0px" y="0px"
	 viewBox="0 0 278.5 242" style="enable-background:new 0 0 278.5 242;" xml:space="preserve">
<style type="text/css">
	.st0{fill:#535353;}
</style>
<g id="k2St30.tif">
	<g>
		<path class="st0" d="M139.1,30.7c35,0,70,0.4,105-0.2c18.2-0.3,31,12.4,30.7,30.8c-0.5,39.8-0.1,79.6-0.1,119.5
			c0,19.8-10.8,30.6-30.6,30.6c-70.1,0-140.3,0-210.4,0c-19.4,0-30.3-10.9-30.3-30.4c0-40,0-80,0-120c0-19.4,10.9-30.3,30.3-30.3
			C68.8,30.7,104,30.7,139.1,30.7z M34.8,49c1.6,1.8,2.6,2.9,3.6,3.9c24.9,24.9,49.7,49.7,74.6,74.6c15.8,15.7,36,15.8,51.8,0.1
			c25.2-25,50.2-50.1,75.3-75.2c0.9-0.9,1.6-1.9,2.8-3.3C173.4,49,104.7,49,34.8,49z M94.8,134.6c-19.8,19.8-39.2,39.2-58.3,58.3
			c68.1,0,136.9,0,204.8,0c-19.1-19.2-38.5-38.7-58.2-58.5c-11.3,13.5-25.4,22.7-44.2,22.7C120.1,157.1,106.1,147.8,94.8,134.6z
			 M21.9,63.1c0,38.7,0,77.4,0,115.9c19.5-19.5,38.9-38.8,57.9-57.9C60.7,101.9,41.3,82.5,21.9,63.1z M198.9,120.6
			c19,19.2,38.2,38.6,57.3,57.9c0-38.3,0-77,0-115.8C236.6,82.5,217.3,101.9,198.9,120.6z"/>
	</g>
</g>
</svg>
