<?xml version="1.0" encoding="utf-8"?>
<!-- Generator: Adobe Illustrator 25.2.3, SVG Export Plug-In . SVG Version: 6.00 Build 0)  -->
<svg version="1.1" id="Camada_1" xmlns="http://www.w3.org/2000/svg" xmlns:xlink="http://www.w3.org/1999/xlink" x="0px" y="0px"
	 viewBox="0 0 40 40" style="enable-background:new 0 0 40 40;" xml:space="preserve">
<style type="text/css">
	.st0{fill:#44566C;}
</style>
<g>
	<path class="st0" d="M35.9,10.2l-8.5-8.5C26.3,0.6,24.8,0,23.3,0h-15C5,0,2.3,2.7,2.3,5.9v28.2C2.3,37.3,5,40,8.2,40h23.5
		c3.3,0,5.9-2.7,5.9-5.9V14.4C37.7,12.8,37,11.3,35.9,10.2z M26.7,4.9l6.3,6.3h-3.2c-1.7,0-3.1-1.4-3.1-3.1V4.9z M34.9,34.1
		c0,1.7-1.4,3.1-3.1,3.1H8.2c-1.7,0-3.1-1.4-3.1-3.1V5.9c0-1.7,1.4-3.1,3.1-3.1l15,0c0.2,0,0.4,0,0.6,0.1v5.3c0,3.3,2.6,5.9,5.9,5.9
		h5.1c0,0.1,0,0.2,0,0.4V34.1z"/>
	<path class="st0" d="M18.8,18.8c-0.5-0.3-1-0.5-1.6-0.5l-3.8,0c0,0,0,0,0,0c-0.6,0-1,0.5-1,1V29c0,0.3,0.1,0.5,0.3,0.7
		c0.2,0.2,0.4,0.3,0.7,0.3c0.3,0,0.5-0.1,0.7-0.3c0.2-0.2,0.3-0.5,0.3-0.7v-3.2h2.9c0.6,0,1.1-0.2,1.6-0.5c0.5-0.3,0.9-0.8,1.2-1.4
		c0.6-1.2,0.6-2.6,0-3.8C19.7,19.6,19.3,19.2,18.8,18.8z M18.3,23c-0.1,0.3-0.3,0.5-0.5,0.7c-0.2,0.2-0.4,0.3-0.6,0.3h-2.9v-3.7h2.9
		c0.2,0,0.5,0.1,0.6,0.3c0.2,0.2,0.4,0.4,0.5,0.7C18.6,21.8,18.6,22.4,18.3,23z"/>
	<path class="st0" d="M27.6,25.5c-0.3-0.2-0.6-0.4-1-0.5c-0.4-0.1-0.7-0.2-1-0.3c-0.3-0.1-0.6-0.2-0.9-0.3c-0.2-0.1-0.5-0.2-0.7-0.4
		c-0.3-0.3-0.3-0.9,0-1.2c0.1-0.1,0.3-0.2,0.5-0.2c0.2,0,0.4-0.1,0.5-0.1c0.4,0,0.7,0.1,1.1,0.2c0.3,0.1,0.6,0.3,0.8,0.6
		c0.2,0.1,0.3,0.2,0.6,0.2c0.2,0,0.4,0,0.6-0.2c0.2-0.1,0.3-0.4,0.3-0.6c0-0.2-0.1-0.4-0.2-0.6c-0.2-0.3-0.5-0.5-0.9-0.7
		c-0.3-0.2-0.7-0.3-1.1-0.4c-0.4-0.1-0.7-0.1-1.1-0.1c-0.5,0-1.1,0.1-1.6,0.3c-0.5,0.2-0.9,0.5-1.2,0.9c-0.3,0.4-0.5,0.9-0.5,1.4
		c0,0.4,0.1,0.8,0.3,1.2c0.2,0.3,0.4,0.6,0.7,0.8c0.3,0.2,0.6,0.4,1,0.5c0.4,0.1,0.7,0.2,1.1,0.3c0.3,0.1,0.6,0.2,0.9,0.3
		c0.2,0.1,0.5,0.2,0.7,0.4c0.2,0.1,0.3,0.4,0.3,0.6c0,0.2-0.1,0.5-0.2,0.6c-0.1,0.1-0.3,0.2-0.5,0.3c-0.2,0-0.4,0.1-0.6,0.1
		c-0.5,0-0.9-0.1-1.3-0.3c-0.4-0.2-0.7-0.4-1-0.8c-0.2-0.2-0.4-0.3-0.6-0.3c-0.2,0-0.4,0-0.6,0.1c-0.2,0.1-0.4,0.4-0.4,0.6
		c0,0.2,0,0.4,0.1,0.6c0.4,0.6,1,1,1.6,1.2c0.6,0.2,1.3,0.3,2,0.3c0.5,0,1-0.1,1.5-0.3c0.5-0.2,0.9-0.5,1.3-0.9
		c0.3-0.4,0.5-0.9,0.5-1.5c0-0.4-0.1-0.8-0.3-1.2C28.2,26,27.9,25.7,27.6,25.5z"/>
</g>
</svg>
