<?xml version="1.0" encoding="utf-8"?>
<!-- Generator: Adobe Illustrator 25.2.3, SVG Export Plug-In . SVG Version: 6.00 Build 0)  -->
<svg version="1.1" id="Capa_1" xmlns="http://www.w3.org/2000/svg" xmlns:xlink="http://www.w3.org/1999/xlink" x="0px" y="0px"
	 viewBox="0 0 278.5 242" style="enable-background:new 0 0 278.5 242;" xml:space="preserve">
<style type="text/css">
	.st0{fill:#535353;}
</style>
<g id="QhKGHP.tif">
	<g>
		<path class="st0" d="M21.1,75c0-3.8,0-7.7,0-11.5c0.2-0.5,0.4-1,0.5-1.5C25.6,34.4,41,16,67.1,6.5c5-1.8,10.4-2.4,15.7-3.6
			c3.8,0,7.7,0,11.5,0C94.5,3,94.8,3.1,95,3.2c9.6,1,18.5,3.9,26.9,8.6c0.7,0.4,1.8,0.5,2.7,0.3c10.5-1.6,21-1.7,31.5-0.1
			c34.2,5.2,61.2,22.2,80,51.3c13.6,21.1,19.1,44.4,16.6,69.5c-0.7,6.7-2.9,13.3,1.2,19.7c0.3,0.5,0.5,1.1,0.6,1.7
			c1,4.3,1.9,8.6,2.8,12.9c0,3.7,0,7.3,0,11c-0.2,0.7-0.4,1.5-0.5,2.2c-4.1,27.2-19.2,45.5-44.8,55.1c-5.2,2-10.9,2.6-16.4,3.8
			c-3.8,0-7.7,0-11.5,0c-0.3-0.1-0.6-0.3-0.9-0.4c-7.9-0.7-15.4-2.9-22.5-6.2c-0.8-0.4-1.8-0.4-2.7-0.3c-3.6,0.3-7.3,1-10.9,1.1
			c-28.6,1.4-54.7-6.1-76.9-24.2c-33.4-27.2-47.1-62.5-41-105.4c0.2-1.4-0.2-3-0.7-4.4c-1.9-5.6-4.1-11.1-5.9-16.7
			C21.8,80.2,21.6,77.5,21.1,75z M36.7,122c0.4,8.7,1.5,17.2,3.7,25.6c13.1,50.1,62.5,83.7,117.5,75.2c1.8-0.3,4.1-0.1,5.7,0.7
			c11.8,5.6,24,7.4,36.9,5.2c36.8-6.1,58-46.1,42.3-79.9c-0.8-1.8-1.2-4.1-0.8-6c2.9-14.8,2.8-29.4-0.7-44
			C229,47.7,179.1,13.5,125,21.5c-2.6,0.4-4.9,0-7.2-1.3c-13.8-7.9-28.5-9.9-43.9-6c-36.7,9.4-54.7,50.3-36,83.2
			c0.8,1.4,1.1,3.5,0.9,5.2C38.3,109.1,37.4,115.5,36.7,122z"/>
		<path class="st0" d="M139.8,200.4c-12.4-0.4-24.6-1.8-36-6.7c-14.7-6.4-25.6-16.7-30.6-32.3c-2.6-8-2-15.7,4.4-22
			c8.4-8.2,22.9-7.5,30.2,1.7c2.3,3,4,6.5,5.7,9.9c2.7,5.4,5.5,10.7,11.5,12.9c11.8,4.4,23.4,4.1,34.2-2.8c3-1.9,5-4.4,5.1-8.3
			c0.1-3.3-1.1-5.9-3.7-7.9c-3.8-3-8.3-4.4-12.8-5.6c-12-3-24-5.7-35.9-9c-8.3-2.3-16.1-6.1-22.9-11.6C70,103.2,70.4,73.9,88.5,58
			c8.4-7.4,18.4-11.5,29.3-13.5c16.2-3,32.4-3.2,48.4,1.2c10.1,2.8,19,7.8,26.2,15.6c5.4,5.8,8.9,12.5,9.2,20.5
			c0.5,12.1-10,21.7-22.1,20.7c-6.2-0.5-11-3.2-14.4-8.2c-1.8-2.6-3.6-5.3-5.2-8.1c-4.1-7.1-10.2-10.8-18.4-10.6
			c-4.7,0.1-9.4,0.3-14,1.2c-2.8,0.6-5.6,2.3-8,4.1c-3.3,2.5-3.5,6.6,0,8.8c3.8,2.4,8.1,4.4,12.4,5.6c10,2.8,20.2,4.7,30.1,7.5
			c7.7,2.3,15.5,4.9,22.7,8.4c31.2,15.1,28.6,53.4,9.9,70.9c-10.5,9.8-23.1,14.7-37,16.7C151.6,199.7,145.7,199.9,139.8,200.4z
			 M139.9,191.1c6.6-0.7,13.2-1.1,19.7-2.3c11.6-2.1,22.1-6.7,30.3-15.6c11.9-12.9,15-42.1-9.8-53.7c-5.2-2.4-10.5-4.7-16-6.2
			c-11.2-3.1-22.6-5.7-33.9-8.5c-6.2-1.6-12.2-3.7-17.1-7.9c-7-5.9-7.7-15.1-1.3-21.6c2.7-2.7,6.2-4.8,9.6-6.5
			c5.9-2.8,12.5-2.7,18.9-2.8c13.1-0.2,22.4,5.9,28.6,17.1c1.3,2.3,2.8,4.6,4.5,6.7c2.4,3.1,7.4,4.2,11.7,2.7
			c3.9-1.4,6.9-5.3,6.9-9.3c0-5.4-2.2-10-5.5-14c-4.5-5.5-10.2-9.5-16.8-12c-19.4-7.4-39-6.9-58.7-1.2c-8.8,2.6-16.4,7.4-21.6,15.1
			c-9.9,14.4-5.3,33.6,10.3,43.5c7.5,4.8,16,7.3,24.5,9.5c10,2.6,20.2,4.7,30.2,7.3c3.5,0.9,6.9,2.5,9.9,4.5
			c12.4,8,13.2,23.5,1.3,32.4c-12.4,9.3-26.6,9.5-40.9,5.7c-9.6-2.6-15.2-9.9-19.4-18.5c-1.4-2.9-2.8-5.9-4.7-8.4
			c-4.5-5.8-14-5.1-17.9,1c-2,3.2-1.5,6.6-0.5,9.9c4.1,13.3,13.3,22,25.8,27.3C118.1,189.6,128.9,190.7,139.9,191.1z"/>
	</g>
</g>
</svg>
