<?xml version="1.0" encoding="utf-8"?>
<!-- Generator: Adobe Illustrator 25.2.1, SVG Export Plug-In . SVG Version: 6.00 Build 0)  -->
<svg version="1.1" id="Camada_1" xmlns="http://www.w3.org/2000/svg" xmlns:xlink="http://www.w3.org/1999/xlink" x="0px" y="0px"
	 viewBox="0 0 28.7 27.3" style="enable-background:new 0 0 28.7 27.3;" xml:space="preserve">
<style type="text/css">
	.st0{fill:#27A71B;}
</style>
<path id="WhatsApp" class="st0" d="M26.8,13.4c-0.1,6.8-5.6,12.2-12.4,12.2c-2,0-4-0.5-5.8-1.5l-6.8,2.2L4,19.8
	c-1.2-1.9-1.8-4.1-1.8-6.3c0-6.8,5.5-12.3,12.3-12.3S26.8,6.6,26.8,13.4z M14.6,3.1C8.9,3.1,4.3,7.7,4.2,13.4c0,2.2,0.7,4.3,2,6
	l-1.3,3.8l4-1.3c4.8,3.1,11.2,1.8,14.3-3c1.1-1.7,1.7-3.6,1.7-5.6C24.9,7.7,20.2,3.1,14.6,3.1z M20.8,16.2c-0.1-0.1-0.3-0.2-0.6-0.3
	s-1.8-0.9-2.1-1s-0.5-0.1-0.7,0.1c-0.2,0.3-0.8,1-1,1.2c-0.2,0.2-0.4,0.2-0.7,0.1c-0.9-0.4-1.7-0.9-2.4-1.5
	c-0.7-0.6-1.2-1.3-1.7-2.1c-0.2-0.3,0-0.5,0.1-0.6s0.3-0.3,0.5-0.5c0.1-0.2,0.2-0.3,0.3-0.5s0.1-0.4,0-0.5S11.8,9,11.6,8.4
	S11.2,7.8,11,7.8s-0.4,0-0.6,0c-0.3,0-0.6,0.1-0.8,0.4c-0.6,0.6-1,1.5-1,2.5c0.1,1.1,0.5,2.2,1.2,3.1c1.3,2,3,3.5,5.1,4.5
	c3.1,1.2,3.1,0.8,3.6,0.7c0.8-0.2,1.6-0.7,2-1.4C20.8,17.1,20.8,16.6,20.8,16.2L20.8,16.2z"/>
</svg>
