<?xml version="1.0" encoding="utf-8"?>
<!-- Generator: Adobe Illustrator 23.1.1, SVG Export Plug-In . SVG Version: 6.00 Build 0)  -->
<svg version="1.1" id="Layer_1" xmlns="http://www.w3.org/2000/svg" xmlns:xlink="http://www.w3.org/1999/xlink" x="0px" y="0px"
	 viewBox="0 0 209.9 165.7" style="enable-background:new 0 0 209.9 165.7;" xml:space="preserve">
<style type="text/css">
	.st0{fill:#FFFFFF;}
</style>
<title>Asset 1</title>
<g>
	<g id="Layer_1-2">
		<path class="st0" d="M4.9,105c0-10.8,1.7-21.5,5-31.7c3.5-10.4,8.9-20.1,16-28.5c7.3-8.7,16.8-16.6,28.5-23.6S80.4,8.5,97.2,4
			v26.7c-6.7,2.3-13.3,5-19.8,8.1c-5,2.3-9.8,5.2-14.1,8.7c-3.5,2.8-6.5,6.3-8.6,10.3c-2,4.1-3,8.6-2.9,13.2
			c-0.1,2.9,0.8,5.8,2.8,8.1c2.1,2.2,4.4,4.2,7,5.8c2.9,1.9,5.9,3.7,9.1,5.7c3.3,2,6.4,4.5,9.1,7.3c3,3.3,5.4,7.1,7,11.2
			c1.8,4.5,2.8,10.3,2.8,17.1c0,11.6-3.6,20.4-10.7,26.5s-16,9.1-26.6,9.1c-14.6,0-26.2-5-34.7-15.1S4.9,122.7,4.9,105z M112.8,105
			c0-10.8,1.7-21.5,5-31.8c3.5-10.4,8.9-20.1,16-28.5c7.3-8.7,16.8-16.6,28.5-23.6c11.7-7,25.9-12.7,42.7-17.2v26.7
			c-7.4,2.7-13.9,5.4-19.6,8.1c-5.1,2.3-9.9,5.2-14.2,8.7c-3.5,2.8-6.5,6.3-8.6,10.3c-2,4.1-3,8.6-2.9,13.2
			c-0.1,2.9,0.8,5.8,2.8,8.1c2.1,2.2,4.5,4.2,7.1,5.8c2.9,1.9,5.9,3.7,9.1,5.7c3.3,2,6.4,4.5,9.1,7.3c3,3.3,5.4,7.1,7,11.2
			c1.9,4.5,2.8,10.3,2.8,17.1c0,11.6-3.6,20.4-10.7,26.5c-7.1,6-16,9.1-26.6,9.1c-14.6,0-26.2-5-34.6-15.1S112.8,122.7,112.8,105z"
			/>
	</g>
</g>
</svg>
