<?xml version="1.0" encoding="utf-8"?>
<!-- Generator: Adobe Illustrator 25.2.1, SVG Export Plug-In . SVG Version: 6.00 Build 0)  -->
<svg version="1.1" id="Layer_1" xmlns="http://www.w3.org/2000/svg" xmlns:xlink="http://www.w3.org/1999/xlink" x="0px" y="0px"
	 viewBox="0 0 23.8 18.5" style="enable-background:new 0 0 23.8 18.5;" xml:space="preserve">
<style type="text/css">
	.st0{fill:#FFD344;}
	.st1{fill:#FFFFFF;}
</style>
<path class="st0" d="M7.4,12.2L6.1,16h0.5C6.8,16,7,16.2,7,16.4s-0.2,0.4-0.4,0.4H5.5l0,0H5.4H5.3c-0.1,0-0.1-0.1-0.1-0.1
	c0-0.1-0.1-0.1-0.1-0.2c0,0,0,0,0-0.1v-0.1L6.6,12c0.1-0.2,0.3-0.3,0.5-0.3C7.3,11.8,7.4,12,7.4,12.2z"/>
<path class="st0" d="M7.8,1.7c-0.9,0-1.7,0.8-1.7,1.7c0,0.9,0.7,1.7,1.6,1.7c1,0,1.8-0.8,1.8-1.7C9.5,2.5,8.7,1.7,7.8,1.7z M7.8,4.3
	c-0.5,0-0.9-0.4-0.9-0.9s0.3-0.9,0.8-0.9s1,0.4,1,0.9S8.3,4.3,7.8,4.3z"/>
<path class="st1" d="M19.7,8.3h-2.5c-0.2,0-0.4,0.2-0.4,0.4v2.2h-2.1c-0.2,0-0.4,0.2-0.4,0.4v2.1H12c-0.2,0-0.4,0.2-0.4,0.4v2.5
	c0,0.2,0.2,0.4,0.4,0.4s0.4-0.2,0.4-0.4v-2.1h2.1c0.2,0,0.4-0.2,0.4-0.4v-2.1H17c0.2,0,0.4-0.2,0.4-0.4l0,0l0,0V9.1h2.1
	c0.2,0,0.4-0.2,0.4-0.4C20.1,8.4,19.9,8.3,19.7,8.3z"/>
<path class="st0" d="M10.2,8.1c-0.4-1-0.9-2-2-2.2c-0.3,0-1.7,0-2,0C5.1,6.1,4.4,7.1,3.9,8L3.8,8.2c-0.1,0.1-0.1,0.2,0,0.4l0.9,2.3
	c0.1,0.2,0.3,0.3,0.5,0.2s0.3-0.3,0.2-0.5L4.6,8.4l0,0c0.5-0.8,1-1.6,1.7-1.7c0.2,0,1.6,0,1.8,0c0.6,0.1,1,0.7,1.4,1.7l1.3,3.2
	c0.1,0.2,0.2,0.3,0.4,0.3c0.1,0,0.1,0,0.2,0c0.2-0.1,0.3-0.3,0.2-0.5L10.2,8.1z"/>
<path class="st0" d="M10,16H9.2l-1-7.6C8.2,8.2,8,8,7.8,8S7.4,8.2,7.4,8.5l1,8c0,0.2,0.1,0.3,0.3,0.3c0,0,0.1,0,0.2,0l0,0H10
	c0.2,0,0.4-0.2,0.4-0.4S10.2,16,10,16z"/>
</svg>
