<?xml version="1.0" encoding="utf-8"?>
<!-- Generator: Adobe Illustrator 25.2.1, SVG Export Plug-In . SVG Version: 6.00 Build 0)  -->
<svg version="1.1" id="Layer_1" xmlns="http://www.w3.org/2000/svg" xmlns:xlink="http://www.w3.org/1999/xlink" x="0px" y="0px"
	 viewBox="0 0 23.8 18.5" style="enable-background:new 0 0 23.8 18.5;" xml:space="preserve">
<style type="text/css">
	.st0{fill:#FFD344;}
	.st1{fill:#FFFFFF;}
</style>
<g id="x9PZBU.tif">
	<g>
		<path class="st0" d="M3.9,9.3c0-3.9,2.8-7.2,6.7-8c1.1-0.2,2.2-0.2,3.3,0.1c0.4,0.1,0.6,0.4,0.5,0.7c-0.1,0.4-0.4,0.5-0.8,0.5
			c-2.9-0.7-5.9,0.6-7.4,2.9c-2.1,3.4-1.1,8.1,3.1,9.9c4,1.8,8.7-0.8,9.4-5.2c0.1-0.9,0.1-1.8-0.1-2.7c-0.1-0.4,0.1-0.7,0.5-0.8
			c0.3-0.1,0.7,0.1,0.8,0.5c1.1,4.5-1.7,8.8-6.2,9.8c-4.4,0.9-8.7-2-9.5-6.4C3.9,10.2,3.9,9.8,3.9,9.3z"/>
		<path class="st1" d="M11.9,9.7C12,9.6,12,9.6,12.1,9.5c2.2-2.2,4.5-4.5,6.7-6.7c0.1-0.1,0.3-0.2,0.5-0.3c0.3,0,0.5,0.1,0.6,0.3
			C20,3.1,20,3.3,19.8,3.5c0,0.1-0.1,0.1-0.2,0.2c-2.4,2.4-4.7,4.7-7.1,7.1c-0.1,0.1-0.2,0.2-0.2,0.2c-0.3,0.2-0.6,0.3-0.9,0
			c-0.9-0.9-1.7-1.7-2.6-2.6c-0.3-0.3-0.3-0.6,0-0.9c0.2-0.3,0.6-0.2,0.9,0C10.5,8.2,11.2,9,11.9,9.7z"/>
	</g>
</g>
</svg>
