<?xml version="1.0" encoding="utf-8"?>
<!-- Generator: Adobe Illustrator 25.2.1, SVG Export Plug-In . SVG Version: 6.00 Build 0)  -->
<svg version="1.1" id="Layer_1" xmlns="http://www.w3.org/2000/svg" xmlns:xlink="http://www.w3.org/1999/xlink" x="0px" y="0px"
	 viewBox="0 0 23.8 18.5" style="enable-background:new 0 0 23.8 18.5;" xml:space="preserve">
<style type="text/css">
	.st0{fill:#FFD344;}
	.st1{fill:#FFFFFF;}
</style>
<g>
	<path class="st0" d="M20.9,0.9h-18c-0.4,0-0.7,0.3-0.7,0.7v2.3c0,0.4,0.6,0.4,0.6,0V1.6c0-0.1,0-0.1,0.1-0.1h17.9
		c0.1,0,0.1,0,0.1,0.1v13.7c0,0.1,0,0.1-0.1,0.1h-3.6v-0.6H20c0.2,0,0.3-0.1,0.3-0.3v-3c0-0.4-0.6-0.4-0.6,0v2.7h-2.6V13l0,0
		c0.2,0,0.5,0,0.7-0.2s0.2-0.5,0.2-0.7c0-0.3,0-0.3,0.2-0.5c0.5-0.4,0.5-0.9,0-1.3C18,10.1,18,10.1,18,9.8C18.2,9.3,17.9,9,17.3,9
		C17,9,17,9,16.8,8.8c-0.4-0.5-0.9-0.5-1.3,0C15.4,9,15.3,9.1,15,9c-0.6-0.1-0.9,0.2-0.9,0.9c0,0.3,0,0.3-0.2,0.5
		c-0.5,0.4-0.5,0.9,0,1.3c0.2,0.2,0.2,0.2,0.2,0.5c-0.1,0.7,0.3,0.9,0.9,0.9v1.3H4V2.7h15.8v7.5c0,0.4,0.6,0.4,0.6,0V2.4
		c0-0.2-0.1-0.3-0.3-0.3H3.7c-0.2,0-0.3,0.1-0.3,0.3v12.2c0,0.2,0.1,0.3,0.3,0.3h11.4v0.6H2.9c-0.1,0-0.1,0-0.1-0.1v-10
		c0-0.4-0.6-0.4-0.6,0v10c0,0.4,0.3,0.7,0.7,0.7H15v1.3c0,0.2,0.2,0.3,0.4,0.3l0.7-0.3l0.7,0.3c0.2,0.1,0.4,0,0.4-0.3V16h3.6
		c0.4,0,0.7-0.3,0.7-0.7V1.6C21.5,1.2,21.2,0.9,20.9,0.9L20.9,0.9z M15,12.5c-0.3,0-0.3,0-0.3-0.3c0-0.4-0.1-0.7-0.4-1
		c-0.2-0.2-0.2-0.2,0-0.4c0.3-0.3,0.4-0.5,0.4-1c0-0.3,0-0.3,0.3-0.3c0.4,0,0.7-0.1,1-0.4c0.2-0.2,0.2-0.2,0.4,0
		c0.3,0.3,0.5,0.4,1,0.4c0.3,0,0.3,0,0.3,0.3c0,0.4,0.1,0.7,0.4,1c0.2,0.2,0.2,0.2,0,0.4c-0.3,0.3-0.4,0.5-0.4,1
		c0,0.3,0,0.3-0.3,0.3c-0.2,0-0.4,0-0.6,0c-0.2,0.1-0.3,0.2-0.4,0.4c-0.1,0.1-0.2,0.2-0.2,0.2S16.1,13,16,12.9s-0.2-0.3-0.4-0.4
		C15.4,12.5,15.2,12.4,15,12.5L15,12.5z M16.3,16.6c-0.1,0-0.2,0-0.2,0l-0.4,0.2v-3.5c0.1,0.1,0.3,0.3,0.5,0.3
		c0.2,0,0.4-0.1,0.5-0.3v3.5L16.3,16.6z"/>
	<path class="st1" d="M5.9,5h9.7c0.4,0,0.4-0.6,0-0.6H5.9C5.6,4.5,5.6,5,5.9,5z"/>
	<path class="st1" d="M18.1,6.4c0-0.2-0.1-0.3-0.3-0.3H5.9c-0.4,0-0.4,0.6,0,0.6h11.9C18,6.7,18.1,6.6,18.1,6.4z"/>
	<path class="st1" d="M13,8.2c0-0.2-0.1-0.3-0.3-0.3H5.9c-0.4,0-0.4,0.6,0,0.6h6.8C12.9,8.4,13,8.3,13,8.2z"/>
	<path class="st1" d="M9.3,12.1c-0.2,0-0.3,0-0.5,0c-0.3,0-0.5-0.1-0.5-0.4c-0.1-0.3-0.5-0.2-0.5,0c0,0.1-0.2,0.4-0.4,0.4
		c-0.1,0-0.1-0.1-0.1-0.2c-0.1-0.1-0.1-0.3-0.1-0.4C7,11,7,10.4,6.9,9.9c-0.1-0.4-0.6-0.3-0.6,0c0,1-0.2,1.9-0.5,2.9
		c-0.1,0.3,0.4,0.5,0.5,0.1s0.2-0.7,0.3-1.1c0,0.1,0.1,0.3,0.2,0.4c0.2,0.3,0.5,0.5,0.9,0.4c0.1-0.1,0.2-0.1,0.3-0.3
		c0.3,0.3,0.7,0.3,1,0.3c0.6,0,1.1,0,1.7,0c0.4,0,0.4-0.6,0-0.6C10.3,12.1,9.8,12.1,9.3,12.1L9.3,12.1z"/>
	<path class="st1" d="M16.2,12.1c0.6,0,1.1-0.5,1.1-1.1s-0.5-1.1-1.1-1.1s-1.1,0.5-1.1,1.1S15.6,12.1,16.2,12.1z M16.2,10.5
		c0.3,0,0.5,0.2,0.5,0.5s-0.2,0.5-0.5,0.5c-0.3,0-0.5-0.2-0.5-0.5S15.9,10.5,16.2,10.5z"/>
</g>
</svg>
