<?xml version="1.0" encoding="utf-8"?>
<!-- Generator: Adobe Illustrator 25.2.1, SVG Export Plug-In . SVG Version: 6.00 Build 0)  -->
<svg version="1.1" id="Layer_1" xmlns="http://www.w3.org/2000/svg" xmlns:xlink="http://www.w3.org/1999/xlink" x="0px" y="0px"
	 viewBox="0 0 23.8 18.5" style="enable-background:new 0 0 23.8 18.5;" xml:space="preserve">
<style type="text/css">
	.st0{fill:#FFFFFF;}
	.st1{fill:#FFD344;}
</style>
<g>
	<path class="st0" d="M10.1,12.7c-0.1,0-0.1,0-0.2-0.1L8.1,11C8,11,8,10.9,8,10.8c0-0.1,0-0.2,0.1-0.2L9.9,9c0.1,0,0.3,0,0.4,0.1
		s0.1,0.3,0,0.4l-1.6,1.3l1.6,1.3c0.1,0.1,0.1,0.3,0,0.4C10.3,12.7,10.2,12.7,10.1,12.7z"/>
	<path class="st0" d="M13.7,12.7c-0.1,0-0.2,0-0.2-0.1c-0.1-0.1-0.1-0.3,0-0.4l1.6-1.3l-1.6-1.3c-0.1-0.1-0.1-0.3,0-0.4
		c0.1-0.1,0.3-0.1,0.4,0l1.8,1.6c0.1,0.1,0.1,0.1,0.1,0.2c0,0.1,0,0.2-0.1,0.2l-1.8,1.6C13.8,12.7,13.8,12.7,13.7,12.7z"/>
	<path class="st0" d="M11.3,13.9C11.2,13.9,11.2,13.9,11.3,13.9c-0.2,0-0.3-0.2-0.3-0.3l1.1-5.4c0-0.2,0.2-0.3,0.3-0.2
		c0.2,0,0.3,0.2,0.2,0.3l-1.1,5.4C11.5,13.8,11.4,13.9,11.3,13.9z"/>
	<path class="st1" d="M18.6,16.8H5.2c-1,0-1.9-0.9-1.9-1.9V3.6c0-1,0.9-1.9,1.9-1.9h13.3c1,0,1.9,0.9,1.9,1.9v11.3
		C20.5,16,19.6,16.8,18.6,16.8z M5.2,2.2c-0.7,0-1.3,0.6-1.3,1.3v11.3c0,0.7,0.6,1.3,1.3,1.3h13.3c0.7,0,1.3-0.6,1.3-1.3V3.6
		c0-0.7-0.6-1.3-1.3-1.3L5.2,2.2L5.2,2.2z"/>
	<path class="st1" d="M20.2,6.2H3.6c-0.2,0-0.3-0.1-0.3-0.3c0-0.2,0.1-0.3,0.3-0.3h16.6c0.2,0,0.3,0.1,0.3,0.3S20.3,6.2,20.2,6.2z"
		/>
	<path class="st1" d="M8.2,4.9C7.7,4.9,7.3,4.5,7.3,4s0.4-0.9,0.9-0.9S9.1,3.5,9.1,4C9.1,4.5,8.7,4.9,8.2,4.9z M8.2,3.6
		C8,3.6,7.8,3.8,7.8,4c0,0.2,0.2,0.3,0.4,0.3S8.5,4.2,8.5,4C8.5,3.8,8.3,3.6,8.2,3.6z"/>
	<path class="st1" d="M5.4,4.9C4.9,4.9,4.5,4.5,4.5,4s0.4-0.9,0.9-0.9S6.3,3.5,6.3,4S5.9,4.9,5.4,4.9z M5.4,3.6
		C5.2,3.6,5.1,3.8,5.1,4c0,0.2,0.1,0.3,0.3,0.3c0.2,0,0.3-0.1,0.3-0.3C5.7,3.8,5.6,3.6,5.4,3.6z"/>
	<path class="st1" d="M10.9,4.9C10.4,4.9,10,4.5,10,4s0.4-0.9,0.9-0.9s0.9,0.4,0.9,0.9C11.8,4.5,11.4,4.9,10.9,4.9z M10.9,3.6
		c-0.2,0-0.3,0.1-0.3,0.3c0,0.2,0.1,0.3,0.3,0.3s0.3-0.1,0.3-0.3C11.2,3.8,11.1,3.6,10.9,3.6z"/>
</g>
</svg>
