<?xml version="1.0" encoding="utf-8"?>
<!-- Generator: Adobe Illustrator 22.0.1, SVG Export Plug-In . SVG Version: 6.00 Build 0)  -->
<svg version="1.1" id="Layer_1" xmlns="http://www.w3.org/2000/svg" xmlns:xlink="http://www.w3.org/1999/xlink" x="0px" y="0px"
	 viewBox="0 0 500 380" style="enable-background:new 0 0 500 380;" xml:space="preserve">
<style type="text/css">
	.st0{fill:#FFFFFF;}
</style>
<title>icon-email-branco</title>
<path class="st0" d="M460,0H40C17.9,0,0,17.9,0,40v300c0,22.1,17.9,40,40,40h420c22.1,0,40-17.9,40-40V40C500,17.9,482.1,0,460,0z
	 M447.4,34l-201,118.5L36.1,35.5c1.1-0.9,2.4-1.5,3.9-1.5H447.4z M460,346H40c-3.3,0-6-2.7-6-6V79.8l203.1,113
	c3,1.7,6.3,2.5,9.6,2.5c3.5,0,7-0.9,10.1-2.8L466,69.1V340C466,343.3,463.3,346,460,346z"/>
</svg>
