<?xml version="1.0" encoding="utf-8"?>
<!-- Generator: Adobe Illustrator 25.2.3, SVG Export Plug-In . SVG Version: 6.00 Build 0)  -->
<svg version="1.1" id="Camada_1" xmlns="http://www.w3.org/2000/svg" xmlns:xlink="http://www.w3.org/1999/xlink" x="0px" y="0px"
	 viewBox="0 0 40 40" style="enable-background:new 0 0 40 40;" xml:space="preserve">
<style type="text/css">
	.st0{fill:#0045FF;}
</style>
<g>
	<g>
		<path class="st0" d="M6.3,34.7C6.4,34.7,6.4,34.7,6.3,34.7c0.1,0,0.1,0,0.1,0c0,0,0,0,0.1,0s0,0,0.1,0c0,0,0,0,0.1,0
			c0,0,0,0,0.1,0c0,0,0,0,0.1,0h0c0,0,0,0,0,0c0,0,0,0,0.1,0c0,0,0,0,0.1,0c0,0,0,0,0.1,0l0,0c0,0,0,0,0-0.1s0,0,0-0.1c0,0,0,0,0,0
			c0,0,0,0,0,0c0,0,0,0,0,0v0c0,0,0,0,0-0.1s0,0,0-0.1s0,0,0-0.1c0,0,0,0,0-0.1s0,0,0-0.1s0,0,0-0.1s0,0,0-0.1v0v0c0,0,0,0,0-0.1
			s0,0,0-0.1s0,0,0-0.1c0,0,0,0,0-0.1s0,0,0-0.1c0,0,0,0,0-0.1c0,0,0,0,0-0.1v0c0,0,0,0,0,0c0,0,0,0,0-0.1s0,0,0-0.1s0,0,0-0.1l0,0
			c0,0,0,0-0.1,0c0,0,0,0-0.1,0s0,0-0.1,0c0,0,0,0,0,0h0c0,0,0,0-0.1,0s0,0-0.1,0c0,0,0,0-0.1,0c0,0,0,0-0.1,0s0,0-0.1,0
			c0,0,0,0-0.1,0s0,0-0.1,0h0h0c0,0,0,0-0.1,0s0,0-0.1,0c0,0,0,0-0.1,0c0,0,0,0-0.1,0s0,0-0.1,0c0,0,0,0-0.1,0c0,0,0,0-0.1,0h0
			c0,0,0,0,0,0c0,0,0,0,0,0c0,0,0,0,0,0c0,0,0,0-0.1,0s0,0-0.1,0l0,0c0,0,0,0,0,0.1s0,0,0,0.1s0,0,0,0.1c0,0,0,0,0,0v0
			c0,0,0,0,0,0.1s0,0,0,0.1s0,0,0,0.1c0,0,0,0,0,0.1s0,0,0,0.1s0,0,0,0.1s0,0,0,0.1v0v0c0,0,0,0,0,0.1s0,0,0,0.1s0,0,0,0.1
			c0,0,0,0,0,0.1s0,0,0,0.1c0,0,0,0,0,0.1c0,0,0,0,0,0.1v0c0,0,0,0,0,0c0,0,0,0,0,0.1s0,0,0,0.1s0,0,0,0.1c0,0,0,0,0,0c0,0,0,0,0,0
			c0,0,0,0,0.1,0c0,0,0,0,0.1,0s0,0,0.1,0c0,0,0,0,0,0s0,0,0,0c0,0,0,0,0.1,0s0,0,0.1,0c0,0,0,0,0.1,0c0,0,0,0,0.1,0s0,0,0.1,0
			C6.2,34.7,6.2,34.7,6.3,34.7C6.3,34.7,6.3,34.7,6.3,34.7C6.3,34.7,6.3,34.7,6.3,34.7C6.3,34.7,6.3,34.7,6.3,34.7z"/>
		<path class="st0" d="M38.6,22.3l-6.3-10.9l-8.8,5.1l5.1-8.9L17.7,1.4l-5.1,8.8V0H0v33.7C0,37.2,2.8,40,6.3,40l0,0H40V27.4H29.8
			L38.6,22.3z M36.9,21.8l-6.4,3.7l-5-8.7l6.4-3.7L36.9,21.8z M24.3,17.5l5,8.6l-7.3,4.2l-3.3-5.7l3.4-5.9L24.3,17.5z M11.3,19.7
			v7.7h-10v-7.7H11.3z M1.3,18.4V10h10v8.4H1.3z M12.6,21.1l5.1,2.9l-5.1,8.8V21.1z M18,26L21,31l-8.7,5.1L18,26z M20.3,32.9v5.8
			H10.2L20.3,32.9z M18.2,3.1l8.7,5l-3.7,6.4l-8.7-5L18.2,3.1z M13.8,10.7l8.7,5l-4.2,7.3l-5.7-3.3v-6.9L13.8,10.7z M11.3,1.3v7.4
			h-10V1.3H11.3z M1.3,33.7v-5h10v5c0,2.7-2.3,5-5,5S1.3,36.5,1.3,33.7z M38.7,38.7h-7.4v-10h7.4V38.7z M30,28.7v10h-8.4v-6.6
			l5.9-3.4H30z"/>
	</g>
</g>
</svg>
