<?xml version="1.0" encoding="utf-8"?>
<!-- Generator: Adobe Illustrator 25.2.3, SVG Export Plug-In . SVG Version: 6.00 Build 0)  -->
<svg version="1.1" id="Capa_1" xmlns="http://www.w3.org/2000/svg" xmlns:xlink="http://www.w3.org/1999/xlink" x="0px" y="0px"
	 viewBox="0 0 278.5 242" style="enable-background:new 0 0 278.5 242;" xml:space="preserve">
<style type="text/css">
	.st0{fill:#535353;}
</style>
<g id="_x37_dSuCd_1_">
	<g>
		<path class="st0" d="M252.2,39.3c0,59.9,0,119.9,0,179.8c-0.1,0.5-0.3,1-0.4,1.6c-0.9,7-4.2,12.5-9.9,16.7
			c-4.8,3.6-10.4,4.6-16.3,4.6c-57.2-0.1-114.5,0-171.7,0c-1.4,0-2.7,0-4.1,0c-8.4-0.4-14.9-4.1-19.6-11c-2.4-3.4-3.2-7.4-4-11.3
			c0-60.2,0-120.4,0-180.7c0.1-0.6,0.3-1.2,0.4-1.8c1.6-11.9,11.7-20.9,23.7-20.9c7.3,0,14.5,0,21.8,0c0.8,0,1.6,0,2.6,0
			c0-2.8-0.2-5.3,0.1-7.8c0.2-1.9,0.8-4,1.9-5.5c2.1-2.8,5.8-3.6,8.9-2.4c3.2,1.2,5.2,4.1,5.2,7.6c0,2.6,0,5.3,0,7.9
			c32.4,0,64.4,0,96.7,0c0-2.8-0.3-5.5,0.1-8.1c0.3-1.9,1.1-4,2.3-5.5c2.2-2.6,5.3-3.1,8.5-1.9c3.2,1.2,5.2,4,5.2,7.4
			c0,2.7,0,5.4,0,8.2c1.1,0,1.9,0,2.6,0c7.3,0,14.7-0.1,22,0c9,0.2,15.8,4.4,20.5,12C250.9,31.7,251.6,35.5,252.2,39.3z M235.9,88.9
			c-64.6,0-128.9,0-193.3,0c0,1.3,0,2.4,0,3.5c0,38.8,0,77.6,0,116.4c0,10.2,6.8,17,17,17c53.1,0,106.1,0,159.2,0
			c10.4,0,17.1-6.7,17.1-17.1c0-39.2,0-78.3,0-117.5C235.9,90.5,235.9,89.7,235.9,88.9z M74.8,32.4c-0.9-0.1-1.6-0.1-2.2-0.1
			c-4.4,0-8.8,0-13.2,0c-9.8,0-16.7,6.7-16.8,16.4c-0.1,7.4,0,14.8,0,22.2c0,0.5,0.1,1,0.2,1.6c64.4,0,128.7,0,193,0
			c0.1-0.4,0.2-0.6,0.2-0.9c0-7.9,0.2-15.8-0.1-23.7c-0.3-8.6-6.6-15.2-14.8-15.6c-5.5-0.3-11.1-0.1-16.7,0c-0.2,0-0.4,0.2-0.7,0.3
			c0,1,0,2,0,3c-0.1,2.3,0.2,4.7-0.4,6.9c-1,4.1-4.9,6.3-9,5.7c-3.8-0.6-6.6-3.9-6.7-7.9c-0.1-2.6,0-5.3,0-7.9
			c-32.4,0-64.5,0-96.7,0c0,2.5,0,4.8,0,7.2c0,5.2-3.2,8.8-8,8.7c-4.8,0-8.1-3.5-8.1-8.7C74.8,37.3,74.8,35,74.8,32.4z"/>
		<path class="st0" d="M123.2,201.5c0-10.8,0-21.4,0-32.1c10.7,0,21.3,0,32.1,0c0,0.8,0.1,1.4,0.1,2.1c0,9.3,0,18.5,0,27.8
			c0,1.7-0.3,2.4-2.2,2.4c-9.4-0.1-18.8,0-28.2-0.1C124.5,201.6,124,201.6,123.2,201.5z"/>
		<path class="st0" d="M123.3,113c10.8,0,21.3,0,32,0c0.1,0.6,0.2,1.1,0.2,1.7c0,9.5,0,19.1,0,28.6c0,1.2-0.1,1.9-1.6,1.9
			c-9.9-0.1-19.7,0-29.6,0c-0.3,0-0.5-0.1-0.9-0.1C123.3,134.4,123.3,123.8,123.3,113z"/>
		<path class="st0" d="M211.7,145.1c-10.8,0-21.3,0-32,0c0-10.7,0-21.2,0-32c0.7,0,1.3-0.1,2-0.1c9.3,0,18.7,0,28,0
			c1.6,0,2.3,0.4,2.2,2.2c-0.1,9.3,0,18.7,0,28C211.8,143.6,211.7,144.3,211.7,145.1z"/>
		<path class="st0" d="M211.7,201.5c-10.7,0-21.3,0-32.1,0c0-10.7,0-21.3,0-32c10.7,0,21.3,0,32.1,0
			C211.7,180.2,211.7,190.8,211.7,201.5z"/>
		<path class="st0" d="M66.8,145c0-10.7,0-21.2,0-31.9c10.7,0,21.3,0,32,0c0,10.6,0,21.2,0,31.9C88.2,145,77.6,145,66.8,145z"/>
		<path class="st0" d="M66.8,169.5c10.8,0,21.3,0,32.1,0c0,0.7,0.1,1.4,0.1,2.1c0,9.4,0,18.8,0,28.2c0,1.1,0.1,2-1.5,2
			c-9.9-0.1-19.7,0-29.6,0c-0.3,0-0.7-0.1-1.1-0.2C66.8,190.8,66.8,180.2,66.8,169.5z"/>
	</g>
</g>
</svg>
