<?xml version="1.0" encoding="utf-8"?>
<!-- Generator: Adobe Illustrator 25.2.3, SVG Export Plug-In . SVG Version: 6.00 Build 0)  -->
<svg version="1.1" id="Camada_1" xmlns="http://www.w3.org/2000/svg" xmlns:xlink="http://www.w3.org/1999/xlink" x="0px" y="0px"
	 viewBox="0 0 40 40" style="enable-background:new 0 0 40 40;" xml:space="preserve">
<style type="text/css">
	.st0{fill:#44566C;}
</style>
<g>
	<g>
		<path class="st0" d="M35.9,10.2l-8.5-8.5C26.3,0.6,24.8,0,23.3,0h-15c-3.3,0-6,2.7-6,5.9v28.2C2.3,37.3,5,40,8.2,40h23.5
			c3.3,0,5.9-2.7,5.9-5.9V14.4C37.7,12.8,37,11.3,35.9,10.2z M26.7,4.9l6.3,6.3h-3.2c-1.7,0-3.1-1.4-3.1-3.1
			C26.7,8.1,26.7,4.9,26.7,4.9z M34.9,34.1c0,1.7-1.4,3.1-3.1,3.1H8.2c-1.7,0-3.1-1.4-3.1-3.1V5.9c0-1.7,1.4-3.1,3.1-3.1h15
			c0.2,0,0.4,0,0.6,0.1v5.3c0,3.3,2.6,5.9,5.9,5.9h5.1c0,0.1,0,0.2,0,0.4v19.6H34.9z"/>
	</g>
	<g>
		<path class="st0" d="M15.7,24l1.2,0.5c-0.2,0.8-0.5,1.5-0.9,1.8c-0.4,0.4-1,0.6-1.6,0.6c-0.8,0-1.5-0.3-2-0.9
			c-0.6-0.7-0.9-1.7-0.9-2.9c0-1.3,0.3-2.3,0.9-3c0.5-0.6,1.2-0.9,2-0.9c0.7,0,1.3,0.2,1.7,0.7c0.3,0.3,0.6,0.8,0.7,1.5l-1.2,0.4
			c-0.1-0.4-0.2-0.7-0.5-0.9s-0.5-0.3-0.8-0.3c-0.5,0-0.8,0.2-1.1,0.6c-0.3,0.4-0.4,1.1-0.4,2c0,1,0.1,1.6,0.4,2
			c0.3,0.4,0.6,0.6,1.1,0.6c0.3,0,0.6-0.1,0.9-0.4C15.4,24.9,15.6,24.5,15.7,24z"/>
		<path class="st0" d="M17.6,24.3l1.2-0.1c0.1,1,0.6,1.4,1.3,1.4c0.4,0,0.7-0.1,0.9-0.3c0.2-0.2,0.3-0.4,0.3-0.7
			c0-0.2,0-0.3-0.1-0.4c-0.1-0.1-0.2-0.2-0.3-0.3s-0.5-0.2-1.1-0.4c-0.5-0.2-0.9-0.3-1.2-0.5c-0.2-0.2-0.4-0.4-0.6-0.7
			s-0.2-0.6-0.2-1c0-0.4,0.1-0.8,0.3-1.1c0.2-0.3,0.4-0.6,0.8-0.7c0.3-0.2,0.7-0.3,1.2-0.3c0.7,0,1.3,0.2,1.7,0.6s0.6,1,0.6,1.7
			l-1.2,0.1c-0.1-0.4-0.2-0.7-0.4-0.8s-0.4-0.2-0.8-0.2c-0.3,0-0.6,0.1-0.8,0.2S19,20.9,19,21.1c0,0.2,0.1,0.4,0.2,0.5
			c0.2,0.1,0.5,0.3,1.1,0.5c0.6,0.2,1.1,0.4,1.4,0.6c0.3,0.2,0.5,0.5,0.6,0.8c0.1,0.3,0.2,0.7,0.2,1.2c0,0.7-0.2,1.2-0.6,1.7
			c-0.4,0.4-1,0.7-1.9,0.7C18.6,26.9,17.8,26,17.6,24.3z"/>
		<path class="st0" d="M23.4,24.3l1.2-0.1c0.1,1,0.6,1.4,1.3,1.4c0.4,0,0.7-0.1,0.9-0.3c0.2-0.2,0.3-0.4,0.3-0.7
			c0-0.2,0-0.3-0.1-0.4c-0.1-0.1-0.2-0.2-0.3-0.3s-0.5-0.2-1.1-0.4c-0.5-0.2-0.9-0.3-1.2-0.5s-0.4-0.4-0.6-0.7s-0.2-0.6-0.2-1
			c0-0.4,0.1-0.8,0.3-1.1c0.2-0.3,0.4-0.6,0.8-0.7s0.7-0.3,1.2-0.3c0.7,0,1.3,0.2,1.7,0.6s0.6,1,0.6,1.7L27,21.4
			c-0.1-0.4-0.2-0.7-0.4-0.8c-0.2-0.2-0.4-0.2-0.8-0.2s-0.6,0.1-0.8,0.2c-0.2,0.1-0.3,0.3-0.3,0.5c0,0.2,0.1,0.4,0.2,0.5
			c0.2,0.1,0.5,0.3,1.1,0.5c0.6,0.2,1.1,0.4,1.4,0.6c0.3,0.2,0.5,0.5,0.6,0.8s0.2,0.7,0.2,1.2c0,0.7-0.2,1.2-0.6,1.7
			c-0.4,0.4-1,0.7-1.9,0.7C24.4,26.9,23.6,26,23.4,24.3z"/>
	</g>
</g>
</svg>
