<?xml version="1.0" encoding="utf-8"?>
<!-- Generator: Adobe Illustrator 25.2.3, SVG Export Plug-In . SVG Version: 6.00 Build 0)  -->
<svg version="1.1" id="Camada_1" xmlns="http://www.w3.org/2000/svg" xmlns:xlink="http://www.w3.org/1999/xlink" x="0px" y="0px"
	 viewBox="0 0 40 40" style="enable-background:new 0 0 40 40;" xml:space="preserve">
<style type="text/css">
	.st0{fill:#0045FF;}
</style>
<g>
	<path class="st0" d="M0,33.5h15.3v5.2H7.1V40h25.8v-1.3h-8.2v-5.2H40V0H0V33.5z M23.4,38.7h-6.8v-5.2h6.8V38.7z M1.3,32.3v-3.5
		h37.4v3.5H1.3z M38.7,1.3v26.1H1.3V1.3H38.7z"/>
	<polygon class="st0" points="30.3,10 22.1,10 22.1,9.7 20.8,9.7 20.8,11.3 29,11.3 29,22.6 22.1,22.6 22.1,14 20.8,14 20.8,22.6 
		11.7,22.6 11.7,11.3 17.3,11.3 17.3,9.4 16,9.4 16,10 11.7,10 11.7,6.5 20.8,6.5 20.8,6.8 22.1,6.8 22.1,5.2 10.4,5.2 10.4,23.9 
		30.3,23.9 	"/>
</g>
</svg>
