<?xml version="1.0" encoding="utf-8"?>
<!-- Generator: Adobe Illustrator 25.2.3, SVG Export Plug-In . SVG Version: 6.00 Build 0)  -->
<svg version="1.1" id="Camada_1" xmlns="http://www.w3.org/2000/svg" xmlns:xlink="http://www.w3.org/1999/xlink" x="0px" y="0px"
	 viewBox="0 0 40 40" style="enable-background:new 0 0 40 40;" xml:space="preserve">
<style type="text/css">
	.st0{fill:#44566C;}
</style>
<g>
	<g>
		<path class="st0" d="M35.9,10.2l-8.5-8.5C26.3,0.6,24.8,0,23.3,0h-15c-3.3,0-6,2.7-6,5.9v28.2C2.3,37.3,5,40,8.2,40h23.5
			c3.3,0,5.9-2.7,5.9-5.9V14.4C37.7,12.8,37,11.3,35.9,10.2z M26.7,4.9l6.3,6.3h-3.2c-1.7,0-3.1-1.4-3.1-3.1
			C26.7,8.1,26.7,4.9,26.7,4.9z M34.9,34.1c0,1.7-1.4,3.1-3.1,3.1H8.2c-1.7,0-3.1-1.4-3.1-3.1V5.9c0-1.7,1.4-3.1,3.1-3.1h15
			c0.2,0,0.4,0,0.6,0.1v5.3c0,3.3,2.6,5.9,5.9,5.9h5.1c0,0.1,0,0.2,0,0.4v19.6H34.9z"/>
	</g>
	<g>
		<path class="st0" d="M8.7,26.8v-7.5h1.2v3h2.5v-3h1.2v7.5h-1.2v-3.3H9.9v3.3H8.7z"/>
		<path class="st0" d="M16.3,26.8v-6.3h-1.8v-1.3h4.9v1.3h-1.8v6.3H16.3z"/>
		<path class="st0" d="M20.2,26.8v-7.5H22l1.1,5.1l1.1-5.1h1.9v7.5H25v-5.9l-1.2,5.9h-1.2l-1.2-5.9v5.9H20.2z"/>
		<path class="st0" d="M27.4,26.8v-7.5h1.2v6.2h3.1v1.3H27.4z"/>
	</g>
</g>
</svg>
