<?xml version="1.0" encoding="utf-8"?>
<!-- Generator: Adobe Illustrator 25.2.3, SVG Export Plug-In . SVG Version: 6.00 Build 0)  -->
<svg version="1.1" id="Camada_1" xmlns="http://www.w3.org/2000/svg" xmlns:xlink="http://www.w3.org/1999/xlink" x="0px" y="0px"
	 viewBox="0 0 40 40" style="enable-background:new 0 0 40 40;" xml:space="preserve">
<style type="text/css">
	.st0{fill:#44566C;}
</style>
<g>
	<path class="st0" d="M35.9,10.2l-8.5-8.5C26.3,0.6,24.8,0,23.3,0h-15C5,0,2.3,2.7,2.3,5.9v28.2C2.3,37.3,5,40,8.2,40h23.5
		c3.3,0,5.9-2.7,5.9-5.9V14.4C37.7,12.8,37,11.3,35.9,10.2z M26.7,4.9l6.3,6.3h-3.2c-1.7,0-3.1-1.4-3.1-3.1V4.9z M34.9,34.1
		c0,1.7-1.4,3.1-3.1,3.1H8.2c-1.7,0-3.1-1.4-3.1-3.1V5.9c0-1.7,1.4-3.1,3.1-3.1l15,0c0.2,0,0.4,0,0.6,0.1v5.3c0,3.3,2.6,5.9,5.9,5.9
		h5.1c0,0.1,0,0.2,0,0.4V34.1z"/>
	<path class="st0" d="M18.5,18.9c-0.1-0.2-0.2-0.4-0.4-0.5c-0.2-0.1-0.4-0.2-0.6-0.2c-0.2,0-0.4,0-0.6,0.2c-0.2,0.1-0.3,0.3-0.4,0.5
		l-4.2,10c0,0.1,0,0.2-0.1,0.3c0,0.2,0.1,0.4,0.2,0.6c0.2,0.2,0.4,0.3,0.7,0.3c0.2,0,0.4-0.1,0.5-0.2c0.2-0.1,0.3-0.3,0.4-0.5l0.9-2
		h5l0.9,2c0.1,0.2,0.2,0.4,0.4,0.5c0.2,0.1,0.3,0.2,0.5,0.2c0.2,0,0.5-0.1,0.6-0.3c0.2-0.2,0.3-0.4,0.3-0.7c0-0.1,0-0.3-0.1-0.4
		L18.5,18.9z M15.8,25.5l1.7-3.9l1.7,3.9H15.8z"/>
	<path class="st0" d="M24.8,18c-0.3,0-0.5,0-0.8,0.2c-0.2,0.2-0.3,0.4-0.3,0.7v0.3c0,0.2,0.1,0.5,0.2,0.7c0.2,0.1,0.5,0.2,0.8,0.2
		c0.3,0,0.6,0,0.8-0.2c0.2-0.2,0.3-0.4,0.3-0.7v-0.3c0-0.2-0.1-0.5-0.2-0.7C25.4,18.1,25.1,18,24.8,18z"/>
	<path class="st0" d="M24.1,21.4c-0.2,0.2-0.3,0.5-0.3,0.7V29c0,0.3,0.1,0.5,0.3,0.7c0.4,0.4,1,0.4,1.4,0c0.2-0.2,0.3-0.5,0.3-0.7
		v-6.9c0-0.3-0.1-0.5-0.3-0.7C25.2,21,24.5,21,24.1,21.4z"/>
</g>
</svg>
