<?xml version="1.0" encoding="utf-8"?>
<!-- Generator: Adobe Illustrator 25.2.3, SVG Export Plug-In . SVG Version: 6.00 Build 0)  -->
<svg version="1.1" id="Capa_1" xmlns="http://www.w3.org/2000/svg" xmlns:xlink="http://www.w3.org/1999/xlink" x="0px" y="0px"
	 viewBox="0 0 278.5 242" style="enable-background:new 0 0 278.5 242;" xml:space="preserve">
<style type="text/css">
	.st0{fill:#535353;}
</style>
<g id="e0anNn.tif">
	<g>
		<path class="st0" d="M139.1,242.6c-14.4-15.9-27.2-32.7-39.2-50.1c-15.3-22.1-29.4-45.1-39.2-70.3c-5.6-14.3-9-28.9-7.7-44.5
			C56.4,38.4,87.8,5.1,127,0.2c31.5-3.9,58.3,5.9,78.6,30.3c19.2,23,24.7,49.6,16.5,78.8c-4.9,17.4-12.9,33.3-21.8,48.9
			c-15.9,27.8-34.6,53.5-54.9,78.2C143.7,238.6,141.4,240.4,139.1,242.6z M138.7,222.5c1.1-1.2,1.5-1.7,1.9-2.2
			c14.9-18.6,29-37.9,41.6-58.2c10.5-16.9,20-34.3,26.2-53.3c8.3-25.8,4.2-49.7-13.3-70.2c-19.9-23.3-45.7-30.8-75.4-23.4
			C87.3,23.3,64.2,55.3,66,88.7c0.7,12.5,4.8,24,9.7,35.2c8.4,19.5,19.3,37.6,31.4,55C117.3,193.4,128,207.7,138.7,222.5z"/>
		<path class="st0" d="M139.2,52.6c18.7,0,33.3,14.8,33.2,33.6c-0.1,18.6-14.7,33.2-33.3,33.2c-18.6,0-33.3-14.8-33.3-33.6
			C106,67.3,120.7,52.6,139.2,52.6z M139.1,105.9c11.3,0.1,20.1-8.6,20.1-19.9c0-11.2-8.8-20.1-20-20.1c-11.1,0-19.8,8.6-20,19.8
			C119,97,127.8,105.8,139.1,105.9z"/>
	</g>
</g>
</svg>
