<?xml version="1.0" encoding="utf-8"?>
<!-- Generator: Adobe Illustrator 25.2.3, SVG Export Plug-In . SVG Version: 6.00 Build 0)  -->
<svg version="1.1" id="Capa_1" xmlns="http://www.w3.org/2000/svg" xmlns:xlink="http://www.w3.org/1999/xlink" x="0px" y="0px"
	 viewBox="0 0 227.5 242" style="enable-background:new 0 0 227.5 242;" xml:space="preserve">
<style type="text/css">
	.st0{fill:#FFFFFF;}
</style>
<g id="_x36_mjCm9_1_">
	<g>
		<path class="st0" d="M113.2,241.3c-25.7,0-51.4,0-77.1,0c-22.3,0-35.9-13.7-36.1-36c-0.1-11.7,0-23.3,0-35c0-4.6,0.6-9,6.5-8.9
			c5.7,0.1,6.7,4.3,6.8,9c0,12.4-0.1,24.7,0,37.1c0.1,11.4,7.3,20.2,18.6,20.3c54.5,0.4,109,0.4,163.5,0c11.5-0.1,18.5-9,18.8-21.2
			c0.3-11.9,0.1-23.8,0.1-35.7c0-4.7,0.2-9.7,6.7-9.5c6.3,0.2,6.5,5.1,6.5,9.8c0,11.7,0.1,23.3,0,35c-0.2,20.7-14.3,35-35,35.1
			C166,241.4,139.6,241.3,113.2,241.3z"/>
		<path class="st0" d="M122,150.3c9.8-9.9,19.6-19.8,29.4-29.7c3.3-3.4,6.7-6.7,10.1-10.1c3.3-3.3,7-4.6,10.5-0.7
			c3.2,3.5,1.8,7-1.2,10.1c-11.8,11.8-23.5,23.6-35.3,35.3c-5.2,5.2-10.5,10.3-15.6,15.7c-4.1,4.3-8,4.4-12.2,0.1
			c-16.9-17-34-34-50.9-51c-3.2-3.2-4.8-6.9-1-10.5c3.8-3.6,7.4-2,10.6,1.2c12.4,12.4,24.9,24.9,37.3,37.3c0.8,0.8,1.7,1.4,3.7,3.1
			c0-3.8,0-6.3,0-8.8c0-43.3,0-86.6,0-129.9c0-2.1-0.6-4.6,0.3-6.3c1.1-2.3,3.5-5.5,5.2-5.5c2.4,0.1,5.5,2.3,6.9,4.6
			c1.2,1.9,0.6,5.1,0.6,7.7c0,43.8,0,87.5,0,131.3c0,1.7,0,3.3,0,5C120.9,149.6,121.4,149.9,122,150.3z"/>
	</g>
</g>
</svg>
