<svg xmlns="http://www.w3.org/2000/svg" viewBox="0 0 690.99 134.12"><defs><style>.cls-1{fill:#fff;}</style></defs><title>logo-jornada</title><g id="Layer_2" data-name="Layer 2"><g id="Layer_1-2" data-name="Layer 1"><rect class="cls-1" x="149.68" y="28.96" width="3.16" height="76.2"/><path class="cls-1" d="M103.38,30.74a2.17,2.17,0,0,0-.29-.24A60.36,60.36,0,0,0,67.6,13.42a8.47,8.47,0,0,0,1.52-4.86A8.56,8.56,0,0,0,52,8.56a8.47,8.47,0,0,0,1.52,4.86A60.36,60.36,0,0,0,18,30.5a1.68,1.68,0,0,0-.29.24,2.09,2.09,0,0,0-.24.28,60.44,60.44,0,0,0,0,85.07,2.17,2.17,0,0,0,.24.29,2.09,2.09,0,0,0,.28.24,60.44,60.44,0,0,0,85.07,0,2,2,0,0,0,.53-.53,60.43,60.43,0,0,0,0-85.06A2.17,2.17,0,0,0,103.38,30.74ZM60.56,4.12a4.44,4.44,0,1,1-4.44,4.44A4.44,4.44,0,0,1,60.56,4.12Zm46.8,71.5H117A56.24,56.24,0,0,1,101.87,112l-6.76-6.77a2.06,2.06,0,0,0-2.92,2.92L99,114.87A56.24,56.24,0,0,1,62.62,130v-9.59a2.06,2.06,0,1,0-4.12,0V130a56.24,56.24,0,0,1-36.34-15.08l6.76-6.76A2.06,2.06,0,0,0,26,105.19L19.25,112A56.24,56.24,0,0,1,4.17,75.62h9.59a2.06,2.06,0,0,0,0-4.12H4.17A56.24,56.24,0,0,1,19.25,35.16L26,41.92A2.06,2.06,0,1,0,28.92,39l-6.76-6.76A56.24,56.24,0,0,1,58.5,17.17v9.59a2.06,2.06,0,1,0,4.12,0V17.17A56.24,56.24,0,0,1,99,32.25L92.19,39a2.06,2.06,0,0,0,2.92,2.92l6.76-6.77A56.24,56.24,0,0,1,117,71.5h-9.59a2.06,2.06,0,0,0,0,4.12Z"/><path class="cls-1" d="M87.43,48.15l-.06-.21a2,2,0,0,0-.11-.2l-.08-.16a3.61,3.61,0,0,0-.25-.3h0l-.3-.25-.17-.09-.19-.1a1.66,1.66,0,0,0-.21-.06l-.17,0a1.9,1.9,0,0,0-.41,0H76.94a2.06,2.06,0,1,0,0,4.12h3.55L73,58.32a13.2,13.2,0,0,0-7-2.64A10.28,10.28,0,0,0,58,58.42C52.39,64,55.59,70.07,59,74.75c4.38,6,3.85,8.58,1.45,11a6.17,6.17,0,0,1-4.77,1.54,9.28,9.28,0,0,1-6-2.79,13,13,0,0,1-3.43-7.28,2.06,2.06,0,0,0-4.07.69,18.13,18.13,0,0,0,3.19,7.86L34.2,96.94a2.06,2.06,0,0,0,2.91,2.91L48.28,88.68a13.19,13.19,0,0,0,7.14,2.71l.75,0a10.07,10.07,0,0,0,7.18-2.77c5.57-5.57,2.38-11.65-1-16.32-4.38-6-3.85-8.58-1.45-11a6.21,6.21,0,0,1,4.77-1.55,9.27,9.27,0,0,1,5.85,2.68s.06.09.1.13l.12.1a13,13,0,0,1,3.34,7.17,2.06,2.06,0,0,0,4.06-.7,18.07,18.07,0,0,0-3.24-7.93L83.4,53.7v3.38a2.06,2.06,0,0,0,4.12,0V48.73a1.9,1.9,0,0,0,0-.41A1.09,1.09,0,0,0,87.43,48.15Z"/><path class="cls-1" d="M239.18,46.06a7.19,7.19,0,0,1-1.56,5,5.11,5.11,0,0,1-3.92,1.7,6.22,6.22,0,0,1-3.66-1,10.66,10.66,0,0,1-2.74-3l-2.28,2a11.34,11.34,0,0,0,3.4,3.56,9.21,9.21,0,0,0,5.24,1.4,8.44,8.44,0,0,0,6.15-2.32,8.31,8.31,0,0,0,1.86-3,12.57,12.57,0,0,0,.67-4.32V27.3h-3.16Z"/><path class="cls-1" d="M277.18,41.3v-.08a15,15,0,0,0-1-5.5,14,14,0,0,0-2.9-4.6,13.75,13.75,0,0,0-4.5-3.14,14.3,14.3,0,0,0-5.82-1.16,14,14,0,0,0-13.28,9,15,15,0,0,0-1,5.52v.08a15,15,0,0,0,1,5.5,14,14,0,0,0,2.9,4.6,13.75,13.75,0,0,0,4.5,3.14,14.3,14.3,0,0,0,5.82,1.16,14,14,0,0,0,13.28-9A15,15,0,0,0,277.18,41.3Zm-3.28.08a12.05,12.05,0,0,1-.82,4.48,11.58,11.58,0,0,1-2.26,3.64A10.39,10.39,0,0,1,267.36,52a10.75,10.75,0,0,1-4.42.9,10.6,10.6,0,0,1-4.42-.92,11,11,0,0,1-5.8-6.14,12.19,12.19,0,0,1-.82-4.5v-.08a12.05,12.05,0,0,1,.82-4.48A11.58,11.58,0,0,1,255,33.1a10.39,10.39,0,0,1,3.46-2.46,10.75,10.75,0,0,1,4.42-.9,10.6,10.6,0,0,1,4.42.92,11,11,0,0,1,5.8,6.14,12.19,12.19,0,0,1,.82,4.5Z"/><path class="cls-1" d="M287,44.42h8l8.11,10.88H307l-8.6-11.44a11.85,11.85,0,0,0,3-.94,8.53,8.53,0,0,0,2.41-1.68,7.11,7.11,0,0,0,1.58-2.4A8.37,8.37,0,0,0,306,35.7v-.08a8.28,8.28,0,0,0-.56-3.08,7,7,0,0,0-1.6-2.44A9,9,0,0,0,300.49,28a13.43,13.43,0,0,0-4.61-.74h-12v28H287Zm0-14.2h8.64a8.44,8.44,0,0,1,5.28,1.46,4.86,4.86,0,0,1,1.88,4.06v.08a5.12,5.12,0,0,1-2,4.22,7.17,7.17,0,0,1-2.28,1.14,9.78,9.78,0,0,1-2.88.4H287Z"/><polygon class="cls-1" points="315.86 32.34 333.94 55.3 336.46 55.3 336.46 27.3 333.38 27.3 333.38 49.74 315.74 27.3 312.78 27.3 312.78 55.3 315.86 55.3 315.86 32.34"/><path class="cls-1" d="M370.46,55.3,357.7,27.1h-3L342,55.3h3.24l3.32-7.4h15.24l3.28,7.4ZM349.78,45l6.4-14.24L362.54,45Z"/><path class="cls-1" d="M400.58,41.3v-.08a13.91,13.91,0,0,0-1.08-5.5,13.09,13.09,0,0,0-3.06-4.42,14.39,14.39,0,0,0-4.72-2.94,16.52,16.52,0,0,0-6-1.06H376v28h9.72a16.32,16.32,0,0,0,6-1.08,14.61,14.61,0,0,0,4.72-3,13,13,0,0,0,3.06-4.44A14.08,14.08,0,0,0,400.58,41.3Zm-3.28.08a11.36,11.36,0,0,1-.82,4.34,10.35,10.35,0,0,1-2.32,3.5,10.56,10.56,0,0,1-3.66,2.32,13.14,13.14,0,0,1-4.8.84h-6.56V30.22h6.56a12.94,12.94,0,0,1,4.8.86,10.65,10.65,0,0,1,3.66,2.36A10.53,10.53,0,0,1,396.48,37a11.36,11.36,0,0,1,.82,4.34Z"/><path class="cls-1" d="M417.62,27.1,404.86,55.3h3.24l3.32-7.4h15.24l3.28,7.4h3.4L420.58,27.1Zm-5,17.92,6.4-14.24L425.42,45Z"/><path class="cls-1" d="M475.46,41.3v-.08a13.91,13.91,0,0,0-1.08-5.5,13.09,13.09,0,0,0-3.06-4.42,14.39,14.39,0,0,0-4.72-2.94,16.52,16.52,0,0,0-6-1.06h-9.72v28h9.72a16.32,16.32,0,0,0,6-1.08,14.61,14.61,0,0,0,4.72-3,13,13,0,0,0,3.06-4.44A14.08,14.08,0,0,0,475.46,41.3Zm-3.28.08a11.56,11.56,0,0,1-.82,4.34,10.35,10.35,0,0,1-2.32,3.5,10.56,10.56,0,0,1-3.66,2.32,13.14,13.14,0,0,1-4.8.84H454V30.22h6.56a12.94,12.94,0,0,1,4.8.86A10.65,10.65,0,0,1,469,33.44,10.53,10.53,0,0,1,471.36,37a11.56,11.56,0,0,1,.82,4.34Z"/><path class="cls-1" d="M508.22,55.3,495.46,27.1h-3L479.74,55.3H483l3.32-7.4h15.24l3.28,7.4ZM487.54,45l6.4-14.24L500.3,45Z"/><path class="cls-1" d="M542.19,53.54a7.59,7.59,0,0,0,2-2.5,7.39,7.39,0,0,0,.71-3.26V47.7a6.2,6.2,0,0,0-2.22-5,16.33,16.33,0,0,0-6.88-2.88,27.63,27.63,0,0,1-3.79-1,8.43,8.43,0,0,1-2.32-1.2,3.55,3.55,0,0,1-1.15-1.44,4.52,4.52,0,0,1-.32-1.78v-.08a4,4,0,0,1,1.6-3.22,6.69,6.69,0,0,1,4.36-1.3,12,12,0,0,1,4.14.72,13.64,13.64,0,0,1,3.94,2.32l1.84-2.44a16.26,16.26,0,0,0-4.46-2.58,15.45,15.45,0,0,0-5.38-.86,11.1,11.1,0,0,0-3.68.58,9.34,9.34,0,0,0-2.92,1.6,7.11,7.11,0,0,0-1.92,2.42,6.78,6.78,0,0,0-.68,3v.08a7.3,7.3,0,0,0,.56,3,6,6,0,0,0,1.72,2.24,10.23,10.23,0,0,0,2.94,1.64,29.65,29.65,0,0,0,4.18,1.2,28.31,28.31,0,0,1,3.62,1,8.14,8.14,0,0,1,2.22,1.16,3.69,3.69,0,0,1,1.12,1.42A4.61,4.61,0,0,1,541.7,48v.08a4.17,4.17,0,0,1-1.7,3.42,7.17,7.17,0,0,1-4.54,1.34,12.8,12.8,0,0,1-5.16-1,16.31,16.31,0,0,1-4.44-3l-2,2.32a17.39,17.39,0,0,0,5.3,3.38,16.61,16.61,0,0,0,6.14,1.1,12.77,12.77,0,0,0,3.84-.56A8.93,8.93,0,0,0,542.19,53.54Z"/><path class="cls-1" d="M571,52.62a10.6,10.6,0,0,0,2.38-3.88,15.87,15.87,0,0,0,.84-5.4v-16h-3.16V43.58c0,3.07-.76,5.37-2.28,6.92a8.24,8.24,0,0,1-6.16,2.32,8.16,8.16,0,0,1-6.28-2.44q-2.28-2.45-2.28-7V27.3H550.9V43.58a15.12,15.12,0,0,0,.84,5.24,10.38,10.38,0,0,0,2.38,3.82A9.82,9.82,0,0,0,557.8,55a13.7,13.7,0,0,0,4.74.78,13.89,13.89,0,0,0,4.78-.78A9.9,9.9,0,0,0,571,52.62Z"/><path class="cls-1" d="M585.86,47.9H601.1l3.28,7.4h3.4L595,27.1h-3L579.3,55.3h3.24Zm7.64-17.12L599.86,45H587.1Z"/><path class="cls-1" d="M194.16,27.1,181.4,55.3h3.24L188,47.9H203.2l3.28,7.4h3.4L197.12,27.1ZM189.2,45l6.4-14.24L202,45Z"/><polygon class="cls-1" points="184.56 75.3 181.4 75.3 181.4 103.3 200.32 103.3 200.32 100.38 184.56 100.38 184.56 75.3"/><rect class="cls-1" x="206.44" y="75.3" width="3.16" height="28"/><path class="cls-1" d="M238.6,91.16a7.8,7.8,0,0,0-1.9-1.38,12.9,12.9,0,0,0-2.33-.94,8.81,8.81,0,0,0,1.61-.9,6.8,6.8,0,0,0,1.42-1.32,6,6,0,0,0,1-1.84,7.29,7.29,0,0,0,.38-2.43v-.08a6.29,6.29,0,0,0-1.8-4.49A8.43,8.43,0,0,0,234,76a12.7,12.7,0,0,0-4.26-.66H217.8v28h12.42a15.41,15.41,0,0,0,4.15-.52,9.72,9.72,0,0,0,3.21-1.5,6.73,6.73,0,0,0,2.06-2.39,7,7,0,0,0,.72-3.22v-.08a6.24,6.24,0,0,0-.48-2.53A6.05,6.05,0,0,0,238.6,91.16ZM221,78.14h8.49A7.32,7.32,0,0,1,234,79.38a4,4,0,0,1,1.6,3.34v.08a4.29,4.29,0,0,1-1.78,3.75,7.78,7.78,0,0,1-4.65,1.27H221ZM237.2,95.46a4.27,4.27,0,0,1-1.84,3.68,8.45,8.45,0,0,1-5,1.32H221V90.58h8.82a10,10,0,0,1,5.54,1.26,4,4,0,0,1,1.88,3.54Z"/><polygon class="cls-1" points="249.84 90.62 265.12 90.62 265.12 87.74 249.84 87.74 249.84 78.18 266.92 78.18 266.92 75.3 246.68 75.3 246.68 103.3 267.12 103.3 267.12 100.42 249.84 100.42 249.84 90.62"/><path class="cls-1" d="M291,90.92a8.44,8.44,0,0,0,2.42-1.68,7.11,7.11,0,0,0,1.58-2.4,8.37,8.37,0,0,0,.56-3.14v-.08a8.28,8.28,0,0,0-.56-3.08,7.18,7.18,0,0,0-1.6-2.44A9,9,0,0,0,290.11,76a13.47,13.47,0,0,0-4.61-.74h-12v28h3.16V92.42h8l8.11,10.88h3.88L288,91.86A11.77,11.77,0,0,0,291,90.92Zm-14.4-1.34V78.22h8.64a8.48,8.48,0,0,1,5.28,1.46,4.86,4.86,0,0,1,1.88,4.06v.08a5.12,5.12,0,0,1-2,4.22,7.17,7.17,0,0,1-2.28,1.14,9.78,9.78,0,0,1-2.88.4Z"/><path class="cls-1" d="M322.86,79.3a14.39,14.39,0,0,0-4.72-2.94,16.52,16.52,0,0,0-6-1.06H302.4v28h9.72a16.32,16.32,0,0,0,6-1.08,14.61,14.61,0,0,0,4.72-3,13,13,0,0,0,3.06-4.44A14.08,14.08,0,0,0,327,89.3v-.08a13.91,13.91,0,0,0-1.08-5.5A13.09,13.09,0,0,0,322.86,79.3Zm.86,10.08a11.56,11.56,0,0,1-.82,4.34,10.35,10.35,0,0,1-2.32,3.5,10.56,10.56,0,0,1-3.66,2.32,13.14,13.14,0,0,1-4.8.84h-6.56V78.22h6.56a12.94,12.94,0,0,1,4.8.86,10.65,10.65,0,0,1,3.66,2.36A10.53,10.53,0,0,1,322.9,85a11.56,11.56,0,0,1,.82,4.34Z"/><path class="cls-1" d="M344,75.1l-12.76,28.2h3.24l3.32-7.4h15.24l3.28,7.4h3.4L347,75.1Zm-5,17.92,6.4-14.24L351.84,93Z"/><path class="cls-1" d="M385.74,79.3A14.39,14.39,0,0,0,381,76.36a16.52,16.52,0,0,0-6-1.06h-9.72v28H375a16.32,16.32,0,0,0,6-1.08,14.61,14.61,0,0,0,4.72-3,13,13,0,0,0,3.06-4.44,14.08,14.08,0,0,0,1.08-5.52v-.08a13.91,13.91,0,0,0-1.08-5.5A13.09,13.09,0,0,0,385.74,79.3Zm.86,10.08a11.56,11.56,0,0,1-.82,4.34,10.35,10.35,0,0,1-2.32,3.5,10.56,10.56,0,0,1-3.66,2.32,13.14,13.14,0,0,1-4.8.84h-6.56V78.22H375a12.94,12.94,0,0,1,4.8.86,10.65,10.65,0,0,1,3.66,2.36A10.53,10.53,0,0,1,385.78,85a11.56,11.56,0,0,1,.82,4.34Z"/><polygon class="cls-1" points="399.72 90.62 415 90.62 415 87.74 399.72 87.74 399.72 78.18 416.8 78.18 416.8 75.3 396.56 75.3 396.56 103.3 417 103.3 417 100.42 399.72 100.42 399.72 90.62"/><polygon class="cls-1" points="435.36 103.3 438.52 103.3 438.52 91.1 453.68 91.1 453.68 88.22 438.52 88.22 438.52 78.22 455.48 78.22 455.48 75.3 435.36 75.3 435.36 103.3"/><rect class="cls-1" x="461.88" y="75.3" width="3.16" height="28"/><polygon class="cls-1" points="493.83 97.74 476.19 75.3 473.23 75.3 473.23 103.3 476.31 103.3 476.31 80.34 494.39 103.3 496.91 103.3 496.91 75.3 493.83 75.3 493.83 97.74"/><path class="cls-1" d="M515.19,75.1l-12.76,28.2h3.24L509,95.9h15.24l3.28,7.4h3.4L518.15,75.1Zm-5,17.92,6.4-14.24L523,93Z"/><polygon class="cls-1" points="557.03 97.74 539.39 75.3 536.43 75.3 536.43 103.3 539.51 103.3 539.51 80.34 557.59 103.3 560.11 103.3 560.11 75.3 557.03 75.3 557.03 97.74"/><path class="cls-1" d="M585.87,99.8a10.74,10.74,0,0,1-5,1.06,10.29,10.29,0,0,1-4.3-.9,10.83,10.83,0,0,1-3.44-2.46,11.43,11.43,0,0,1-2.28-3.66,12.5,12.5,0,0,1-.82-4.54v-.08a12.4,12.4,0,0,1,.82-4.5,11.43,11.43,0,0,1,2.28-3.66,10.62,10.62,0,0,1,3.44-2.44,11.41,11.41,0,0,1,9.24.2,17.53,17.53,0,0,1,3.86,2.76l2.16-2.32a20.41,20.41,0,0,0-2.16-1.82,12.69,12.69,0,0,0-2.44-1.4,13.86,13.86,0,0,0-2.86-.9,17.27,17.27,0,0,0-3.46-.32A14,14,0,0,0,575.27,76a13.78,13.78,0,0,0-4.48,3.12,14.58,14.58,0,0,0-2.94,4.62,15,15,0,0,0-1.06,5.6v.08A15.13,15.13,0,0,0,567.85,95a13.75,13.75,0,0,0,7.38,7.64,13.8,13.8,0,0,0,5.6,1.12,15.51,15.51,0,0,0,3.48-.36,14.14,14.14,0,0,0,2.92-1,13.86,13.86,0,0,0,2.54-1.54,19.35,19.35,0,0,0,2.26-2l-2.08-2A17.23,17.23,0,0,1,585.87,99.8Z"/><polygon class="cls-1" points="600.71 90.62 615.99 90.62 615.99 87.74 600.71 87.74 600.71 78.18 617.79 78.18 617.79 75.3 597.55 75.3 597.55 103.3 617.99 103.3 617.99 100.42 600.71 100.42 600.71 90.62"/><rect class="cls-1" x="624.63" y="75.3" width="3.16" height="28"/><path class="cls-1" d="M653.56,90.92A8.58,8.58,0,0,0,656,89.24a7.24,7.24,0,0,0,1.57-2.4,8.18,8.18,0,0,0,.56-3.14v-.08a8.08,8.08,0,0,0-.56-3.08A7.16,7.16,0,0,0,656,78.1,9,9,0,0,0,652.62,76,13.39,13.39,0,0,0,648,75.3H636v28h3.16V92.42h8l8.12,10.88h3.88l-8.6-11.44A11.77,11.77,0,0,0,653.56,90.92Zm-14.41-1.34V78.22h8.64a8.44,8.44,0,0,1,5.28,1.46A4.83,4.83,0,0,1,655,83.74v.08a5.12,5.12,0,0,1-2,4.22,7.17,7.17,0,0,1-2.28,1.14,9.78,9.78,0,0,1-2.88.4Z"/><path class="cls-1" d="M678.23,75.1h-3l-12.76,28.2h3.24l3.32-7.4h15.24l3.28,7.4H691ZM670.31,93l6.4-14.24L683.07,93Z"/></g></g></svg>