<?xml version="1.0" encoding="utf-8"?>
<!-- Generator: Adobe Illustrator 26.5.0, SVG Export Plug-In . SVG Version: 6.00 Build 0)  -->
<svg version="1.1" id="Camada_1" xmlns="http://www.w3.org/2000/svg" xmlns:xlink="http://www.w3.org/1999/xlink" x="0px" y="0px"
	 viewBox="0 0 16 16" style="enable-background:new 0 0 16 16;" xml:space="preserve">
<style type="text/css">
	.st0{fill:#1E1E1E;}
	.st1{fill:#FFFFFF;}
</style>
<path class="st0" d="M14,16H2c-1.1,0-2-0.9-2-2V2c0-1.1,0.9-2,2-2h12c1.1,0,2,0.9,2,2v12C16,15.1,15.1,16,14,16z"/>
<g>
	<g>
		<polygon class="st1" points="1.4,10.9 1.4,6.1 1.9,6.1 1.9,9.9 4.8,7.3 7.7,9.9 7.7,5.1 11.1,7.9 14.6,5.1 14.6,10.4 14.1,10.4 
			14.1,6.1 11.1,8.5 8.2,6.1 8.2,10.9 4.8,7.9 		"/>
	</g>
</g>
</svg>
