<?xml version="1.0" encoding="utf-8"?>
<!-- Generator: Adobe Illustrator 24.2.3, SVG Export Plug-In . SVG Version: 6.00 Build 0)  -->
<svg version="1.1" id="Capa_1" xmlns="http://www.w3.org/2000/svg" xmlns:xlink="http://www.w3.org/1999/xlink" x="0px" y="0px"
	 viewBox="0 0 97.8 97.8" style="enable-background:new 0 0 97.8 97.8;" xml:space="preserve">
<style type="text/css">
	.st0{fill:#B1E3FA;}
	.st1{fill:#F7BACF;}
	.st2{fill:#E7EE9F;}
	.st3{fill:#FEEA3A;}
	.st4{fill:#FE9D7F;}
	.st5{fill:#4EC2F6;}
	.st6{fill:#CCDB38;}
	.st7{fill:#FE3F80;}
	.st8{fill:#FE3D02;}
</style>
<g>
	<path id="path59" class="st0" d="M73.9,51.2v-1.6H88v3.3H73.9L73.9,51.2L73.9,51.2z M73.9,46v-1.6H88v3.3H73.9L73.9,46L73.9,46z
		 M73.9,40.7v-1.6H88v3.3H73.9L73.9,40.7L73.9,40.7z M73.9,35.3v-1.6H88v3.4H73.9L73.9,35.3L73.9,35.3z M73.9,30.3v-1.8H88v3.6H73.9
		L73.9,30.3L73.9,30.3z"/>
	<path id="path57" class="st1" d="M42.5,51.2v-1.6h14.1v3.3H42.5V51.2z M42.5,46v-1.6h14.1v3.3H42.5V46z M42.5,40.7v-1.6h14.1v3.3
		H42.5V40.7z M42.5,35.3v-1.6h14.1v3.4H42.5V35.3z"/>
	<path id="path55" class="st2" d="M58.2,51.2v-1.6h14.1v3.3H58.2L58.2,51.2L58.2,51.2z M58.2,46v-1.6h14.1v3.3H58.2L58.2,46L58.2,46
		z"/>
	<path id="path53" class="st3" d="M27,66.9v-1.6h13.7v3.3H27V66.9z M27,61.5v-1.6h13.7v3.3H27V61.5z M27,56.3v-1.6h13.7v3.3H27V56.3
		z"/>
	<path id="path51" class="st4" d="M11.3,51.2v-1.6H25v3.3H11.3V51.2z M11.3,46v-1.6H25v3.3H11.3V46z"/>
	<path id="path49" class="st5" d="M74.1,66.9v-1.6h13.7v3.3H74.1V66.9z M74.1,61.5v-1.6h13.7v3.3H74.1V61.5z M74.1,56.3v-1.6h13.7
		v3.3H74.1V56.3z"/>
	<path id="path47" class="st6" d="M58.4,66.9v-1.6h13.7v3.3H58.4L58.4,66.9L58.4,66.9z M58.4,61.5v-1.6h13.7v3.3H58.4L58.4,61.5
		L58.4,61.5z M58.4,56.3v-1.6h13.7v3.3H58.4L58.4,56.3L58.4,56.3z"/>
	<path id="path45" class="st7" d="M42.7,66.9v-1.6h13.7v3.3H42.7V66.9z M42.7,61.5v-1.6h13.7v3.3H42.7V61.5z M42.7,56.3v-1.6h13.7
		v3.3H42.7V56.3z"/>
	<path id="path43" class="st8" d="M11.3,66.9v-1.6H25v3.3H11.3V66.9z M11.3,61.5v-1.6H25v3.3H11.3V61.5z M11.3,56.3v-1.6H25v3.3
		H11.3V56.3z"/>
</g>
</svg>
